<?xml version="1.0" encoding="utf-8"?>
<!-- Generator: Adobe Illustrator 20.1.0, SVG Export Plug-In . SVG Version: 6.00 Build 0)  -->
<svg version="1.1" id="Layer_1" xmlns="http://www.w3.org/2000/svg" xmlns:xlink="http://www.w3.org/1999/xlink" x="0px" y="0px"
	 viewBox="0 0 151 99" style="enable-background:new 0 0 151 99;" xml:space="preserve">
<style type="text/css">
	.st0{fill:#A03232;}
</style>
<g>
	<path class="st0" d="M45.5,29c0.1,0.1,0.2,0.1,0.2,0.2c1.3,0.7,2,2,2.7,3.3c0.9,2,1.1,4,1,6.1c-0.1,1.4-0.2,2.8-0.6,4.1
		c-0.9,3.2-3,5.4-6.1,6.6c-1.3,0.5-2.7,0.7-4,0.9c-0.6,0.1-1.2,0.2-1.8,0.3c-0.4,0-0.8,0-1.3,0c-0.4,0.5-1.1,0.3-1.7,0.4
		c-0.2,0-0.3-0.2-0.3-0.4c0-0.5,0-1,0-1.5c0-1.8-0.1-3.6-0.1-5.4c0-1.8,0-3.7,0-5.5c0-1.6-0.1-3.3-0.1-4.9c0-2.5,0-5,0-7.4
		c0-2.6,0-5.2,0-7.7c0-1.5,0-3.1,0-4.6c0-0.5,0.1-0.6,0.5-0.7c1.3-0.2,2.6-0.4,3.9-0.4c0,0,0.1,0,0.1,0c0.6-0.5,1.4-0.4,2.1-0.5
		c1.2,0,2.5-0.1,3.6,0.2c1.5,0.3,2.9,1,3.8,2.4c0.2,0.3,0.4,0.7,0.5,1c0.6,1.5,0.8,3.1,0.8,4.7c0,2-0.1,4-1.1,5.8
		c-0.2,0.4-0.5,0.9-0.8,1.3c-0.4,0.5-0.9,1-1.3,1.5C45.7,28.7,45.6,28.8,45.5,29z M38.8,47.1L38.8,47.1
		C38.8,47.1,38.8,47.1,38.8,47.1z M46.3,18C46.3,18,46.3,18,46.3,18L46.3,18L46.3,18z M41,47.4c-0.1,0-0.1-0.1-0.2-0.1
		C40.9,47.3,41,47.4,41,47.4L41,47.4z M39.8,46.2c0,0.1,0.1,0.2,0.1,0.3c0,0,0.1,0,0.1-0.1C40,46.3,39.9,46.3,39.8,46.2
		C39.8,46.2,39.8,46.2,39.8,46.2z M46.4,18.6c0.3,0.2,0.5,0,0.6-0.2l0,0l0,0C46.7,18.4,46.5,18.5,46.4,18.6L46.4,18.6z M43.6,14.3
		c0,0,0.1-0.1,0.1-0.1c0,0-0.1,0-0.1-0.1C43.7,14.2,43.7,14.2,43.6,14.3c-0.3-0.1-0.6-0.3-0.9,0.3C43.1,14.4,43.4,14.5,43.6,14.3z
		 M40,13.1c0.1,0.1,0.3,0.2,0.5,0.4c0.1-0.3,0.2-0.5,0.2-0.8c-0.4-0.1-0.8-0.1-1.3-0.2C39.7,12.8,39.8,13,40,13.1L40,13.1z M40,45.2
		c0-0.3,0-0.5,0-0.6c0.5-0.3,1-0.5,1.4-0.8c0.8-0.4,1.4-1.1,1.6-1.9c0.3-1.1,0.5-2.3,0.5-3.4c0.1-1.3-0.1-2.6-0.5-3.9
		c-0.5-1.5-1.6-2.2-3.1-2c-0.6,0.1-0.7,0.1-0.7,0.8c0,1.8,0.1,3.6,0.1,5.4c0,1.8-0.1,3.5-0.1,5.3C39.3,44.5,39.5,44.9,40,45.2z
		 M39.3,27.6c0.9-0.2,1.6-0.3,2.2-0.8c0.9-0.7,1.4-1.6,1.6-2.6c0.3-1.4,0.4-2.9,0.1-4.3c-0.3-1.8-1.5-2.7-3.3-2.6
		c-0.7,0-0.8,0.1-0.8,0.8c0,2.9,0,5.8,0,8.6C39.2,27,39.3,27.2,39.3,27.6z M40.2,46.2c0,0,0.1-0.1,0.1-0.1c-0.1-0.1-0.2-0.3-0.3-0.4
		c0,0-0.1,0-0.3,0.1C40,46,40.1,46.1,40.2,46.2z M45.1,35.6c0.3,0.4,0.3,0.4,0.7,0.3C45.6,35.8,45.3,35.7,45.1,35.6z M43.2,15.2
		c0.1-0.1,0.2-0.2,0.2-0.2c0,0-0.1-0.1-0.1-0.1c-0.1,0.1-0.1,0.1-0.2,0.2C43.1,15,43.1,15.1,43.2,15.2z M47.9,40.4
		c0.1-0.1,0.1-0.1,0.2-0.2c0,0-0.1-0.1-0.1-0.1c-0.1,0-0.1,0.1-0.2,0.1C47.8,40.2,47.8,40.3,47.9,40.4z M48.2,18.5
		c0.1,0,0.1,0,0.2,0c0-0.1,0-0.2-0.1-0.3c0,0-0.1,0-0.1,0C48.2,18.3,48.2,18.4,48.2,18.5z M34.3,34.9c0.1,0,0.1-0.1,0.2-0.1
		c0,0-0.1-0.1-0.1-0.1C34.3,34.7,34.3,34.7,34.3,34.9C34.3,34.8,34.3,34.8,34.3,34.9z M46.7,36.1c-0.1,0-0.2,0-0.2,0
		c0,0.1,0,0.1-0.1,0.2C46.5,36.3,46.6,36.2,46.7,36.1z M46.1,40.3c0,0,0.1,0,0.1,0c0,0,0-0.1-0.1-0.1C46.2,40.2,46.1,40.2,46.1,40.3
		C46.1,40.3,46.1,40.3,46.1,40.3z M45.9,18.7C46,18.7,46,18.7,45.9,18.7c0.1-0.1,0.1-0.1,0-0.1C45.9,18.6,45.9,18.6,45.9,18.7
		C45.9,18.7,45.9,18.7,45.9,18.7z M39.6,45.5C39.6,45.5,39.6,45.5,39.6,45.5C39.6,45.5,39.6,45.5,39.6,45.5
		C39.6,45.4,39.5,45.4,39.6,45.5C39.5,45.5,39.5,45.5,39.6,45.5z M38.3,24.9L38.3,24.9L38.3,24.9L38.3,24.9z M33.9,26.5
		C33.9,26.4,33.9,26.4,33.9,26.5C33.8,26.4,33.8,26.4,33.9,26.5C33.8,26.4,33.8,26.4,33.9,26.5C33.8,26.5,33.8,26.5,33.9,26.5z
		 M48.9,41C48.9,41,48.8,41,48.9,41C48.8,41.1,48.8,41.1,48.9,41C48.9,41.1,48.9,41,48.9,41z M48.3,17C48.3,17,48.3,17,48.3,17
		c0-0.1,0-0.1,0-0.1C48.3,16.9,48.2,16.9,48.3,17C48.2,16.9,48.3,16.9,48.3,17z M44.9,20.1C44.9,20.1,44.9,20.1,44.9,20.1
		C44.9,20.1,44.8,20.1,44.9,20.1C44.9,20.1,44.9,20.1,44.9,20.1C44.9,20.1,44.9,20.1,44.9,20.1z M34,26.9L34,26.9L34,26.9L34,26.9z
		 M48.6,19.1C48.6,19.1,48.5,19.1,48.6,19.1C48.5,19.1,48.5,19.1,48.6,19.1C48.6,19.1,48.6,19.1,48.6,19.1z"/>
	<path class="st0" d="M99.8,70.3c0.1,0.2,0.3,0.4,0.2,0.5c-0.1,1.6-0.3,3.1-0.4,4.7c0,0.4-0.1,0.9-0.1,1.3c-0.3,0-0.7,0-0.7,0.5
		c0.2,0,0.3-0.1,0.5-0.1c0,0.3,0.1,0.5,0,0.7c-0.4,1-0.7,2-1.1,3c-0.7,1.5-2,2.4-3.4,3.1c-1.5,0.8-3,1.2-4.6,1.4
		c-1.7,0.3-3.4,0.5-5.1,0.8c-0.1,0-0.2,0-0.4,0c-0.5,0-0.6-0.1-0.6-0.6c0-1.9,0-3.8,0-5.7c0-5.6-0.1-11.1-0.2-16.7
		c0-3.5,0-7.1,0-10.6c0-1.3,0.1-2.6,0.1-3.9c0-0.6,0-0.6,0.6-0.7c0.6-0.1,1.2-0.2,1.8-0.2c0.2,0,0.5,0,0.7,0.1c0.1,0,0.2,0,0.3,0
		c1.5-0.6,3.1-0.6,4.6-0.7c1.2-0.1,2.3,0,3.5,0.4c1.4,0.4,2.4,1.3,3,2.7c1,2.1,1.3,4.4,1.4,6.7c0.1,0.9,0.1,1.7,0.1,2.6
		c0,1.5,0.1,3,0.1,4.5c0,1.4,0,2.8-0.1,4.2c0,0.5,0,1,0,1.4C100.1,69.9,100,70.1,99.8,70.3C99.8,70.3,99.8,70.3,99.8,70.3z M98,68.5
		c0.1,0.1,0.2,0.2,0.2,0.3c0,0,0.1-0.1,0.1-0.1C98.2,68.7,98.1,68.6,98,68.5C97.9,68.5,97.9,68.5,98,68.5c-0.1,0-0.1,0-0.1,0
		C97.9,68.5,97.9,68.5,98,68.5z M97.6,52.1c0.1-0.1,0.2-0.3,0.3-0.3c-0.2-0.2-0.3-0.4-0.4-0.5c-0.2-0.1-0.5-0.3-0.6-0.3
		c-0.4,0.3-0.6,0.1-0.9-0.1c-0.1,0.2-0.1,0.3-0.2,0.4c-0.2-0.2-0.3-0.4-0.5-0.6c0,0-0.1,0.1-0.1,0.1c0.1,0.2,0.3,0.5,0.4,0.7
		c0.2,0.2,0.4,0.4,0.5,0.6C96.7,52.1,97.2,52.1,97.6,52.1c0,0.3-0.1,0.6,0.1,1C98,52.6,98,52.3,97.6,52.1z M90.1,79.8
		c0.6,0.1,1.1-0.1,1.7-0.3c0.9-0.2,1.4-0.8,1.7-1.7c0.4-1.2,0.7-2.4,0.7-3.7c0.1-3.7,0.1-7.5,0.1-11.2c0-1.6,0-3.2-0.1-4.9
		c-0.1-1.1-0.2-2.2-0.4-3.3c-0.4-1.6-1.1-2-2.4-2c-0.2,0-0.4,0-0.6,0c-0.7,0.1-0.8,0.1-0.8,0.8c0,0.2,0,0.4,0,0.6
		c0,1.8,0.1,3.7,0,5.5c0,2.1-0.1,4.3-0.1,6.4c0,4.3,0.1,8.6,0.1,12.9C90,79.3,90,79.5,90.1,79.8z M95.8,68.1c0,0-0.1,0-0.1,0.1
		c0,0.1,0.1,0.2,0.1,0.2c0,0,0.1,0,0.1-0.1C95.9,68.3,95.8,68.2,95.8,68.1z M97.6,76.6c0,0,0.1-0.1,0.1-0.1c0,0-0.1-0.1-0.1-0.1
		c0,0-0.1,0.1-0.1,0.1C97.5,76.5,97.5,76.6,97.6,76.6z M94.8,49.9c-0.1,0-0.1-0.1-0.2-0.1c0,0-0.1,0.1-0.1,0.1
		c0,0.1,0.1,0.1,0.1,0.1C94.7,50,94.7,49.9,94.8,49.9z M97.7,55.4c0,0,0.1,0,0.1,0.1c0-0.1,0.1-0.2,0.1-0.3c0,0-0.1,0-0.1,0
		C97.8,55.3,97.7,55.3,97.7,55.4z M95.8,53.7c0,0,0-0.1,0.1-0.1c0,0-0.1,0-0.1,0C95.7,53.6,95.7,53.6,95.8,53.7
		C95.7,53.7,95.8,53.7,95.8,53.7z M91.8,49.8c0,0,0.1-0.1,0-0.1c0,0-0.1-0.1-0.1,0c0,0,0,0.1-0.1,0.1C91.8,49.8,91.8,49.8,91.8,49.8
		z M97.8,53.8C97.8,53.8,97.9,53.8,97.8,53.8C97.9,53.8,97.9,53.8,97.8,53.8C97.8,53.8,97.8,53.8,97.8,53.8
		C97.8,53.8,97.8,53.8,97.8,53.8z M98.2,70.5L98.2,70.5L98.2,70.5L98.2,70.5z M85.2,81.9C85.2,81.9,85.2,82,85.2,81.9
		C85.2,82,85.2,82,85.2,81.9C85.3,82,85.3,81.9,85.2,81.9C85.3,81.9,85.2,81.9,85.2,81.9z M89.5,67.2C89.6,67.2,89.6,67.2,89.5,67.2
		C89.5,67.2,89.5,67.2,89.5,67.2C89.5,67.2,89.5,67.2,89.5,67.2z"/>
	<path class="st0" d="M79,52.4c0.5,0.4,0.7,1,0.9,1.6c0.5,1.3,0.7,2.7,0.8,4c0,0.6,0,1.1,0.1,1.7c0.1,1.7-0.4,3.3-0.8,4.8
		c-0.3,0.9-0.5,1.8-1.1,2.6c-0.3,0.4-0.5,0.7-0.8,1.1c-0.2,0.3-0.3,0.5-0.2,0.9c0.5,2.7,1,5.4,1.6,8.1c0.6,2.9,1.2,5.8,1.9,8.7
		c0.1,0.3,0.1,0.5,0.1,0.8c-0.2,0.1-0.4,0.1-0.5,0.1c-1.4,0.2-2.7,0.4-4.1,0.6c-0.7,0.1-0.8,0.1-1-0.7c-0.2-0.8-0.4-1.7-0.5-2.5
		c0-0.2,0.1-0.3,0.1-0.5c0-0.1,0-0.2,0-0.3c-0.6-0.6-0.5-1.4-0.7-2.1c-0.5-2.3-0.9-4.6-1.4-6.9c-0.2-0.9-0.4-1.8-0.5-2.7
		c-0.2,0-0.4,0-0.6,0c-0.9,0.1-1,0.2-1,1.1c0,1,0,1.9,0,2.9c0.1,2.5,0.2,4.9,0.2,7.4c0,1.4,0,2.9,0,4.3c0,0.9,0,1-0.9,1.1
		c-1.3,0.2-2.7,0.3-4,0.5c-0.2,0-0.4,0-0.6,0c0-0.2-0.1-0.4-0.1-0.6c0-1.3,0-2.6,0-3.9c0-1-0.1-2-0.1-3.1c0-2.1,0-4.3,0-6.4
		c0-3-0.1-6.1-0.2-9.1c0-1.6,0-3.2,0-4.8c0-2.2,0.1-4.4,0.1-6.6c0-0.8,0-1.6,0-2.4c0-0.2,0-0.4,0-0.6c0-0.5,0.1-0.6,0.6-0.7
		c1.2-0.2,2.5-0.4,3.7-0.5c1-0.1,2.1-0.2,3.1-0.3c1.6-0.1,3.1,0.1,4.4,0.8C78.1,51.1,78.7,51.6,79,52.4c-0.2,0.1-0.4,0.3-0.6,0.4
		c-0.2,0.1-0.2,0.3,0,0.5C78.8,53.1,79.2,52.9,79,52.4z M72.3,53.8C72.3,53.8,72.3,53.8,72.3,53.8L72.3,53.8z M74.9,55L74.9,55
		L74.9,55C74.9,55,74.9,55,74.9,55z M69.7,58.5L69.7,58.5L69.7,58.5L69.7,58.5C69.7,58.5,69.7,58.5,69.7,58.5z M75.2,57.7
		c-0.2-0.4-0.4-0.7-0.6-1.1c-0.6-1.2-1.6-1.6-2.9-1.2c-0.6,0.2-0.7,0.3-0.7,1c0,3.1,0.1,6.2,0.1,9.4c0,0.1,0,0.3,0,0.4
		c0,0.4,0.2,0.5,0.6,0.5c0.2,0,0.4-0.1,0.5-0.2c1.1-0.4,1.9-1.2,2.4-2.3c0.2-0.5,0.3-1,0.5-1.5c0.1-0.2,0.1-0.2,0.1-0.4
		c0-0.2,0-0.5,0-0.7c0.1-1.1,0.1-2.3-0.2-3.4C75.1,58,75.2,57.8,75.2,57.7z M68.1,56.8c-0.1,0.4-0.3,0.7-0.5,1.2
		c0.3-0.1,0.5-0.2,0.7-0.4c0.2-0.2,0.6-0.1,0.6-0.5C68.6,57,68.3,56.9,68.1,56.8z M68.8,77.6C68.8,77.7,68.8,77.7,68.8,77.6
		c0.1,0.1,0.1,0.1,0.2,0.1C68.9,77.6,68.9,77.6,68.8,77.6C68.9,77.6,68.8,77.6,68.8,77.6z M67.3,58.8c0,0,0.1,0,0.1,0
		c0-0.1-0.1-0.2-0.1-0.3c-0.1,0-0.1,0-0.2,0C67.2,58.6,67.2,58.7,67.3,58.8z M69.7,57.1c-0.2-0.2-0.3-0.2-0.3-0.2
		c0,0.1-0.1,0.1-0.1,0.2c0,0,0.1,0.1,0.1,0.1C69.5,57.2,69.5,57.2,69.7,57.1z M76.9,58.5C77,58.4,77,58.4,76.9,58.5
		C77,58.4,76.9,58.4,76.9,58.5C76.9,58.4,76.9,58.4,76.9,58.5C76.9,58.4,76.9,58.5,76.9,58.5z M80.1,58.5
		C80.2,58.5,80.2,58.5,80.1,58.5C80.2,58.5,80.2,58.5,80.1,58.5C80.2,58.5,80.1,58.5,80.1,58.5C80.1,58.5,80.1,58.5,80.1,58.5z
		 M67.1,78.2L67.1,78.2L67.1,78.2L67.1,78.2z M67.8,56.3C67.8,56.3,67.8,56.3,67.8,56.3c0.1-0.1,0-0.1,0-0.1
		C67.7,56.2,67.7,56.3,67.8,56.3C67.7,56.3,67.7,56.3,67.8,56.3z M70.7,56.5L70.7,56.5L70.7,56.5L70.7,56.5z M70,56.6L70,56.6
		L70,56.6L70,56.6z"/>
	<path class="st0" d="M8,81.9c0,0.3-0.1,0.7-0.1,1c0,0.4-0.1,0.8-0.1,1.2c0,0.1,0,0.1,0,0.2c0.1,0.6,0.2,1.2,0.2,1.8
		c0,1.5-0.1,3-0.1,4.6c0,2.1,0.1,4.2,0.2,6.4c0,0.3,0,0.7,0,1c-1.8,0.5-3.6,0.6-5.4,0.9c0-0.5-0.1-0.8-0.1-1.2
		c-0.1-4.1-0.1-8.3-0.2-12.4c0-1.2-0.1-2.4-0.1-3.6c0-0.9,0-1.8,0-2.6c0-0.2,0.1-0.4,0.2-0.6c0.3-0.4,0.3-0.5,0-0.8
		c-0.2-0.2-0.2-0.4-0.2-0.7c0-2.2-0.1-4.4-0.1-6.6c0-0.9-0.1-1.9-0.1-2.8c0-1.5,0.1-2.9,0.1-4.4c0-0.6-0.1-1.1-0.1-1.7
		c0-0.2,0-0.4,0-0.6c0-0.2,0.1-0.5,0.3-0.5c0.2-0.1,0.6-0.2,0.8,0.1c0.1,0.2,0.3,0.3,0.4,0.5c0.4-0.4,0-0.5-0.1-0.7
		c0.2,0,0.4-0.1,0.4-0.1c0.2,0.2,0.4,0.1,0.6-0.1c0.2,0.2,0.3,0.3,0.6,0.5C5,60.4,5,60.2,4.9,60c0.7-0.1,1.4-0.3,2.1-0.4
		c1.6-0.2,3.2-0.3,4.8-0.1c1.7,0.2,3.1,1,4,2.5c0.8,1.3,1.3,2.6,1.5,4.1c0.4,2.4,0.3,4.8-0.1,7.2c-0.2,1.3-0.8,2.5-1.4,3.6
		c-0.2,0.4-0.6,0.7-0.9,1c-0.3,0.3-0.4,0.7-0.3,1.1c0.6,2.8,1.3,5.5,1.9,8.3c0.6,2.7,1.2,5.4,1.7,8.1c0,0.1,0.1,0.2,0.1,0.3
		c0.1,0.5,0,0.6-0.5,0.7c-0.7,0.1-1.3,0.2-2,0.4c-0.7,0.1-1.3,0.2-2,0.3c-0.1,0-0.3,0.1-0.3,0c-0.3-0.2-0.5,0-0.8,0.2
		c-0.6-2.7-1.1-5.3-1.7-7.9c-0.6-2.6-1-5.2-1.7-7.9C8.9,81.7,8.4,81.8,8,81.9C8,81.9,8,81.9,8,81.9z M3.1,80.4
		c-0.2-0.2-0.2,0.1-0.3,0.2c-0.2,0.1-0.2,0.2,0,0.3c0-0.1,0-0.2-0.1-0.4C2.9,80.5,3,80.5,3.1,80.4L3.1,80.4z M7.5,62.7
		c0-0.2,0.1-0.4,0.1-0.6c0,0-0.1,0-0.1,0C7.4,62.3,7.5,62.5,7.5,62.7c0.1,0,0.2-0.1,0.3-0.1c0,0,0-0.1,0-0.1
		C7.7,62.5,7.6,62.6,7.5,62.7z M9.1,63.8c-0.1-0.1-0.2-0.2-0.3-0.3c0,0-0.1,0.1-0.1,0.1C8.9,63.8,9,63.8,9.1,63.8L9.1,63.8z M2.8,62
		c0,0.1,0,0.2,0.1,0.5C3,62.2,3,62.1,3.1,62C3,62,2.9,62,2.8,62C2.8,62,2.8,62,2.8,62z M10.2,82.6c0.1-0.2,0.1-0.3,0.2-0.5
		c0.2,0,0.5,0.1,0.7,0.1c0,0,0-0.1,0-0.1c-0.2-0.1-0.5-0.2-0.7,0c-0.1,0-0.3,0.1-0.4,0.1c0,0.1-0.1,0.1-0.1,0.2
		C10,82.5,10.1,82.6,10.2,82.6L10.2,82.6L10.2,82.6z M5,90.8c-0.1-0.2-0.3-0.3-0.6-0.3C4.5,90.9,4.7,90.8,5,90.8
		c0.1,0,0.1,0.1,0.2,0.2c0,0,0-0.1,0.1-0.1C5.1,90.8,5,90.8,5,90.8z M11.9,74.6c0.1,0.1,0.2,0.3,0.3,0.5c0.2-0.2,0.4-0.3,0.5-0.5
		c0,0-0.1-0.1-0.1-0.1C12.4,74.6,12.1,74.8,11.9,74.6L11.9,74.6z M12.4,73.3c0.2-0.2,0.5-0.5,0.7-0.7c-0.4-0.2-0.7,0-1,0.2
		c-0.3-0.3-0.2-0.6-0.2-0.9c0-0.9,0.1-1.8,0-2.7c-0.1-0.7-0.2-1.5-0.5-2.2c-0.7-1.6-1.7-1.9-3.2-1.9c-0.5,0-0.6,0.2-0.6,0.7
		c0,1.6,0,3.1,0.1,4.7c0,0.4,0,0.8,0,1c-0.3,0.2-0.6,0.3-0.6,0.4c-0.1,0.4,0.4,0.2,0.6,0.5c0,0.9,0.1,1.9,0.1,2.8c0,0.3,0,0.6,0,0.9
		c0,0.3,0.2,0.4,0.5,0.3c1.4-0.3,2.5-1,3.1-2.4C11.6,73.6,11.9,73.3,12.4,73.3c0,0.1-0.1,0.3-0.1,0.5C12.6,73.6,12.9,73.5,12.4,73.3
		z M6.3,81.5c0.3,0.2,0.6,0.3,0.9,0.4c0.1,0,0.3,0,0.3-0.1c0,0,0-0.2-0.1-0.3c-0.1-0.2-0.3-0.3-0.4-0.3C6.9,81.3,6.7,81.4,6.3,81.5z
		 M16.8,72.4c0-0.1,0-0.1,0-0.2c-0.4-0.3-0.4-0.3-0.7,0.1C16.4,72.4,16.6,72.4,16.8,72.4z M7,79.6c-0.2-0.6-0.3-0.6-0.7-0.2
		C6.5,79.5,6.8,79.5,7,79.6z M5.9,71.2c-0.5,0.4-0.5,0.4-0.1,0.7C5.8,71.7,5.9,71.5,5.9,71.2z M6.1,93.6c-0.3,0.2-0.3,0.4-0.2,0.5
		c0,0.1,0.2,0,0.4,0C6.2,93.9,6.2,93.8,6.1,93.6z M12.9,79.9c-0.3,0.3-0.2,0.4,0,0.6c0.1,0,0.2,0,0.3-0.1
		C13.1,80.2,13,80.1,12.9,79.9z M5.2,71.9c0,0-0.1-0.1-0.1-0.1C5,71.9,4.9,72,4.8,72.1c0,0,0.1,0,0.1,0.1C5,72.1,5.1,72,5.2,71.9z
		 M5.7,92.2c-0.2,0-0.2-0.1-0.3-0.1c0,0-0.1,0.1-0.1,0.1c0,0.1,0.1,0.2,0.2,0.2C5.5,92.4,5.5,92.3,5.7,92.2z M4.9,91.9
		c0,0,0.1-0.1,0.1-0.1c-0.1-0.1-0.2-0.1-0.3-0.2c0,0-0.1,0.1-0.1,0.1C4.7,91.7,4.8,91.8,4.9,91.9z M15.8,66c0,0.1,0,0.1,0,0.2
		c0.1,0,0.2-0.1,0.4-0.1c0,0,0-0.1,0-0.1C16,66,15.9,66,15.8,66z M10.4,65.1c0,0,0.1-0.1,0.1-0.1c0-0.1-0.1-0.2-0.1-0.2
		c0,0-0.1,0-0.3-0.1C10.2,64.9,10.3,65,10.4,65.1z M4.5,76.9c0,0,0-0.1,0-0.1c-0.1,0-0.2,0-0.4-0.1c0,0,0,0.1,0,0.1
		C4.3,76.9,4.4,76.9,4.5,76.9z M12.5,75.8c-0.1-0.1-0.2-0.1-0.3-0.1c0,0-0.1,0.1-0.1,0.1c0,0.1,0.1,0.1,0.2,0.2
		C12.4,75.9,12.5,75.9,12.5,75.8z M10.2,63.5c0,0,0.1,0,0.1,0.1c0.1-0.1,0.1-0.2,0.2-0.3c0,0-0.1,0-0.1-0.1
		C10.3,63.3,10.2,63.4,10.2,63.5z M13.9,72.7c0.1,0,0.1-0.1,0.1-0.1c0,0-0.1-0.1-0.1-0.1c0,0-0.1,0-0.1,0.1
		C13.8,72.6,13.8,72.6,13.9,72.7z M4.4,73.2c0.1,0,0.1,0,0.2,0c0-0.1,0-0.3,0-0.4c0,0-0.1,0-0.1,0C4.4,72.9,4.4,73.1,4.4,73.2z
		 M13.8,80.4c0.1-0.1,0.1-0.1,0.1-0.2c0,0,0-0.1,0-0.1c-0.1,0-0.1,0-0.2,0.1C13.7,80.2,13.8,80.3,13.8,80.4z M7.3,80
		c0,0-0.1,0-0.1,0c0,0.1,0.1,0.2,0.1,0.2c0,0,0,0,0.1,0C7.3,80.1,7.3,80.1,7.3,80z M11.6,65.7C11.6,65.8,11.6,65.8,11.6,65.7
		c0.1,0.1,0.1,0.1,0.2,0.1C11.7,65.8,11.7,65.7,11.6,65.7C11.7,65.7,11.6,65.7,11.6,65.7z M6.8,76.3C6.8,76.4,6.8,76.4,6.8,76.3
		c0.2,0.1,0.2,0,0.2,0c0,0-0.1-0.1-0.1-0.1C6.8,76.2,6.8,76.3,6.8,76.3z M6.8,82.8C6.8,82.8,6.8,82.7,6.8,82.8
		C6.8,82.7,6.8,82.7,6.8,82.8C6.8,82.8,6.8,82.8,6.8,82.8C6.8,82.8,6.8,82.8,6.8,82.8z M15.5,72.6C15.5,72.6,15.5,72.6,15.5,72.6
		c-0.1,0.1,0,0.1,0,0.1C15.5,72.7,15.5,72.6,15.5,72.6C15.5,72.6,15.5,72.6,15.5,72.6z M10.2,60.8C10.2,60.8,10.1,60.8,10.2,60.8
		c-0.1,0.1,0,0.1,0,0.1C10.2,60.9,10.2,60.8,10.2,60.8C10.2,60.8,10.2,60.8,10.2,60.8z M13.2,73.4C13.2,73.4,13.3,73.3,13.2,73.4
		c0.1-0.1,0.1-0.1,0.1-0.1c0,0-0.1,0-0.1,0C13.2,73.3,13.2,73.4,13.2,73.4z M11.7,80.6c0,0,0.1,0,0.1-0.1c0,0,0-0.1-0.1-0.1
		C11.7,80.4,11.7,80.5,11.7,80.6C11.7,80.5,11.7,80.6,11.7,80.6z M14.9,70.9C14.9,70.9,14.9,70.9,14.9,70.9
		C14.8,70.9,14.8,70.9,14.9,70.9C14.9,71,14.9,71,14.9,70.9C14.9,70.9,14.9,70.9,14.9,70.9z M3.4,81.3C3.4,81.3,3.4,81.3,3.4,81.3
		C3.4,81.3,3.4,81.4,3.4,81.3C3.4,81.3,3.4,81.3,3.4,81.3z M5.1,92.9C5.1,92.8,5.1,92.8,5.1,92.9C5.1,92.8,5.1,92.8,5.1,92.9
		C5.1,92.8,5.1,92.8,5.1,92.9z M4.8,83.4C4.8,83.4,4.8,83.4,4.8,83.4C4.8,83.5,4.9,83.5,4.8,83.4C4.9,83.5,4.9,83.4,4.8,83.4
		C4.9,83.4,4.9,83.4,4.8,83.4z M16.1,63.9C16.1,63.9,16.1,63.9,16.1,63.9C16.1,64,16.1,64,16.1,63.9C16.1,64,16.1,63.9,16.1,63.9z
		 M5.9,81L5.9,81L5.9,81L5.9,81z M6.8,61.4L6.8,61.4L6.8,61.4L6.8,61.4z M4.4,86.6L4.4,86.6L4.4,86.6L4.4,86.6z M4,81.1L4,81.1
		L4,81.1L4,81.1z M3.5,64.3C3.5,64.2,3.5,64.2,3.5,64.3C3.5,64.2,3.5,64.2,3.5,64.3C3.5,64.2,3.5,64.2,3.5,64.3z M8.8,63.1L8.8,63.1
		L8.8,63.1L8.8,63.1z M9.2,62.3L9.2,62.3L9.2,62.3L9.2,62.3z M6.5,83.4L6.5,83.4L6.5,83.4L6.5,83.4z M15.9,64.4L15.9,64.4L15.9,64.4
		L15.9,64.4z M2.8,81.7L2.8,81.7L2.8,81.7L2.8,81.7z"/>
	<path class="st0" d="M79.7,44.1c-0.2-1.4-0.5-2.8-0.6-4.1c-0.1-0.9-0.2-1.8-0.3-2.8c-0.1-0.6-0.2-0.7-0.7-0.6
		c-1.5,0.2-3,0.5-4.4,0.7c-0.4,0.1-0.5,0.3-0.6,0.7c0,0.7-0.2,1.5-0.3,2.2c-0.2,1.5-0.4,2.9-0.6,4.4c-0.1,0.8-0.2,0.8-0.9,0.9
		c-1.3,0.2-2.7,0.4-4,0.6c-0.2,0-0.5,0-0.8,0c0-0.4,0-0.7,0.1-1c0.2-1.3,0.4-2.6,0.6-3.9c0.2-1.4,0.4-2.7,0.6-4.1
		c0.4-2.5,0.7-5,1.1-7.4c0.3-1.9,0.6-3.8,0.8-5.7c0.4-2.8,0.7-5.7,1.2-8.5c0.4-2.8,0.9-5.6,1.3-8.3c0.1-0.4,0.2-0.5,0.6-0.6
		c1.7-0.3,3.5-0.5,5.2-0.8c1.1-0.2,1.1-0.2,1.2,0.9c0.4,2.5,0.8,4.9,1.1,7.4c0.2,1.5,0.5,3.1,0.7,4.6c0.4,2.5,0.8,5,1.2,7.5
		c0.4,2.1,0.7,4.2,1.1,6.3c0.2,1.2,0.3,2.3,0.5,3.5c0.3,1.9,0.7,3.8,1,5.7c0.1,0.4,0.1,0.8,0.2,1.1c0.1,0.3-0.1,0.5-0.4,0.6
		c-1,0.1-1.9,0.3-2.9,0.3c-0.6,0-1.2,0.1-1.7,0.3C80.1,44.2,80,44.1,79.7,44.1z M82.1,37.5L82.1,37.5c0-0.1,0.1-0.1,0.1-0.2
		c0,0-0.1,0-0.1,0C82.1,37.4,82.1,37.4,82.1,37.5z M74.1,31.1c0.1,0,0.3,0.1,0.4,0.1c0.9-0.1,1.8-0.2,2.8-0.3
		c0.6-0.1,0.6-0.2,0.5-0.7c-0.2-1.2-0.3-2.5-0.5-3.7c-0.3-2.3-0.7-4.6-1-6.9c-0.1-0.4-0.1-0.9-0.2-1.3c0-0.1-0.1-0.2-0.3-0.4
		C75.4,18.9,74,30.4,74.1,31.1z M72.4,34.1C72.4,34.1,72.4,34.1,72.4,34.1c0.1,0.1,0.2,0.1,0.3,0.1c0,0,0,0,0,0
		C72.6,34.1,72.5,34.1,72.4,34.1z M71,22.1c0,0-0.1-0.1-0.1-0.1c0,0-0.1,0.1-0.1,0.1c0,0,0.1,0.1,0.1,0.1C70.9,22.2,71,22.1,71,22.1
		z M70.2,30.4c0.1-0.1,0.1-0.1,0.2-0.1c0,0,0-0.1-0.1-0.1c-0.1,0-0.1,0-0.2,0C70.2,30.3,70.2,30.3,70.2,30.4z M73.1,35.7
		c0.1,0,0.1,0,0.1,0c0-0.1,0-0.1-0.1-0.2c0,0-0.1,0-0.1,0C73.1,35.6,73.1,35.7,73.1,35.7z M73.3,19.9C73.3,19.9,73.3,19.9,73.3,19.9
		C73.4,19.9,73.4,19.8,73.3,19.9C73.4,19.8,73.3,19.8,73.3,19.9C73.3,19.8,73.3,19.9,73.3,19.9z M80.5,30.4L80.5,30.4L80.5,30.4
		L80.5,30.4z M71.8,26.6c0,0,0,0.1,0.1,0.1c0,0,0.1-0.1,0.1-0.1c0,0,0-0.1,0-0.1C71.8,26.6,71.8,26.6,71.8,26.6z M71.8,38.1
		C71.8,38.1,71.7,38.1,71.8,38.1c-0.1-0.1-0.1,0-0.1,0C71.7,38.1,71.7,38.1,71.8,38.1C71.7,38.1,71.8,38.1,71.8,38.1z M82.1,26.5
		C82.1,26.4,82.1,26.4,82.1,26.5C82.1,26.4,82.1,26.4,82.1,26.5C82.1,26.4,82,26.4,82.1,26.5C82.1,26.4,82.1,26.4,82.1,26.5z
		 M80.5,43.6C80.5,43.6,80.6,43.6,80.5,43.6C80.6,43.6,80.6,43.6,80.5,43.6C80.6,43.6,80.6,43.5,80.5,43.6
		C80.5,43.6,80.5,43.6,80.5,43.6z M70.9,38L70.9,38L70.9,38L70.9,38z M73.8,20L73.8,20L73.8,20L73.8,20z"/>
	<path class="st0" d="M114.3,51.4c-0.1,0.2-0.1,0.3-0.2,0.5l0,0c-0.1,0-0.3,0-0.5-0.1c0,0.3-0.1,0.5-0.1,0.8
		c0.8,0.3,0.8-0.5,1.3-0.8c0.1,0.7,0.3,1.3,0.4,1.9c0.5,2.8,0.9,5.7,1.4,8.5c0.3,1.8,0.6,3.6,0.9,5.4c0.2,1.1,0.5,2.2,0.6,3.3
		c0.3,1.6,0.4,3.2,0.7,4.8c0.2,1.4,0.5,2.9,0.8,4.3c0.2,1.1,0.2,1.1-0.9,1.3c-1.3,0.2-2.5,0.4-3.8,0.6c-0.2,0-0.4,0-0.6,0
		c-0.1-0.3-0.1-0.6-0.2-0.8c-0.3-1.9-0.5-3.8-0.8-5.7c0-0.1,0-0.3-0.1-0.4c-0.1-0.6-0.2-0.7-0.8-0.6c-1.4,0.2-2.8,0.4-4.2,0.6
		c-0.6,0.1-0.7,0.2-0.8,0.8c-0.2,1.9-0.4,3.7-0.7,5.6c-0.1,0.4-0.2,0.9-0.3,1.3c-0.1,0.2-0.3,0.4-0.5,0.5c-1.5,0.3-3.1,0.5-4.7,0.7
		c0,0-0.1,0-0.2-0.1c0-0.2,0-0.5,0.1-0.7c0.6-4.3,1.2-8.6,1.8-12.9c0.3-2.2,0.6-4.4,1-6.7c0.1-0.6,0-1.3,0.9-1.5
		c-0.5-0.2-0.6-0.6-0.5-1c0.2-0.9,0.3-1.7,0.4-2.6c0.1-0.4,0.2-0.7,0.6-0.9c0.3-0.1,0.4-0.3,0.3-0.7c-0.2,0.1-0.4,0.2-0.7,0.4
		c0-0.2,0-0.4,0-0.5c0.5-3.4,1-6.7,1.6-10.1c0.1-0.4,0.2-0.9,0.2-1.3c0-0.3,0.2-0.4,0.5-0.5c0.8-0.1,1.5-0.2,2.3-0.3
		c0.1,0,0.4,0,0.5,0.1c0.3,0.3,0.5,0.1,0.7,0l0,0c0.2,0.1,0.4,0.2,0.7,0.3c0-0.2,0-0.3-0.1-0.4c0.7-0.3,1.5-0.3,2.3-0.4
		c0.3,0,0.4,0.2,0.4,0.4c0.1,0.5,0.1,0.9,0.2,1.4c0.2,1.3,0.4,2.6,0.6,3.9c0.1,0.5,0,0.9,0,1.4C114.6,51.2,114.4,51.3,114.3,51.4
		C114.2,51.4,114.3,51.4,114.3,51.4z M109.8,69.4C109.8,69.4,109.8,69.4,109.8,69.4c0,0-0.1,0-0.2,0
		C109.7,69.4,109.7,69.4,109.8,69.4z M105.3,57.8c0.1,0,0.2,0.1,0.3,0.1c0,0,0-0.1,0-0.1C105.5,57.8,105.4,57.8,105.3,57.8
		L105.3,57.8L105.3,57.8z M110.7,53.4C110.7,53.4,110.7,53.4,110.7,53.4C110.7,53.4,110.7,53.3,110.7,53.4
		C110.7,53.4,110.7,53.4,110.7,53.4c-0.2,0-0.3-0.1-0.5-0.1c0,0.1,0,0.1,0,0.2C110.3,53.4,110.5,53.4,110.7,53.4z M108.3,69.1
		c0.3,0,0.5,0,0.8,0c0.8-0.1,1.6-0.2,2.4-0.4c0.6-0.1,0.7-0.2,0.6-0.9c-0.1-0.6-0.1-1.1-0.1-1.7c0-0.4,0.1-0.6,0.5-0.8
		c0.1,0,0.2-0.1,0.3-0.2c-0.4-0.5-0.4-0.5-1-0.2c-0.1-0.8-0.2-1.5-0.3-2.3c-0.1-0.8-0.2-1.6-0.3-2.3c-0.1-0.8-0.1-1.5-0.3-2.3
		c-0.2-0.7-0.1-1.5-0.5-2.3c-0.3,0.4-0.3,0.9-0.4,1.2c-0.2,1.2-0.3,2.4-0.5,3.5c-0.3,2.4-0.7,4.8-1,7.2
		C108.2,68.2,108.3,68.6,108.3,69.1z M113.2,65.6c0-0.1,0.1-0.1,0.1-0.2c0-0.1-0.1-0.1-0.1-0.1c0,0-0.1,0.1-0.1,0.1
		C113.1,65.5,113.2,65.5,113.2,65.6z M103.9,80.3c0.1,0,0.1-0.1,0.1-0.1c0,0-0.1-0.1-0.1-0.1c0,0-0.1,0-0.1,0.1
		C103.9,80.2,103.9,80.2,103.9,80.3z M113.7,49.8C113.6,49.8,113.6,49.8,113.7,49.8c-0.1,0-0.1,0-0.2,0
		C113.5,49.9,113.6,49.9,113.7,49.8C113.6,49.9,113.7,49.9,113.7,49.8z M113.1,55.7C113.1,55.7,113.1,55.7,113.1,55.7
		c-0.1-0.1-0.1,0-0.2,0C113,55.8,113,55.8,113.1,55.7C113.1,55.8,113.1,55.8,113.1,55.7z M106.4,56.7
		C106.4,56.7,106.3,56.7,106.4,56.7C106.3,56.7,106.3,56.7,106.4,56.7C106.3,56.7,106.3,56.7,106.4,56.7z M110.7,44.9L110.7,44.9
		L110.7,44.9L110.7,44.9z M117.8,80.2c0,0,0-0.1,0-0.1C117.8,80.1,117.8,80.1,117.8,80.2C117.7,80.2,117.7,80.2,117.8,80.2
		C117.8,80.2,117.8,80.2,117.8,80.2z M111.2,52.7L111.2,52.7L111.2,52.7L111.2,52.7z"/>
	<path class="st0" d="M35.8,62.1c0.7,2.2,1,4.4,1.3,6.7c0.4,2.5,0.7,5,1.1,7.4c0,0.3,0,0.5,0.1,0.8c0,0.2,0.1,0.4,0.2,0.6
		c0.1,0,0.1,0,0.2,0c0.1-0.2,0.2-0.4,0.2-0.6c0.3-2,0.5-4,0.8-6c0.1-1.2,0.3-2.5,0.4-3.7c0.2-1.8,0.5-3.6,0.7-5.5
		c0-0.3,0.2-0.7,0.3-1c0-0.3,0-0.6,0-0.8c0.1-1,0.3-2,0.4-3c0.1-0.7,0.2-1.4,0.2-2.1c0-0.4,0.2-0.6,0.6-0.6c1.1-0.2,2.3-0.3,3.4-0.5
		c0.5-0.1,0.9-0.1,1.5-0.2c0,0.5-0.1,0.9-0.1,1.3c-0.4,2.5-0.8,5-1.2,7.6c-0.4,3-0.8,6.1-1.2,9.1c-0.2,1.3-0.4,2.5-0.6,3.7
		c0,0.2-0.2,0.3-0.3,0.4c-0.1,0.1-0.3,0.3-0.6,0.5c0.7,0.1,0.6,0.6,0.6,1c-0.2,1.3-0.3,2.6-0.5,4c-0.1,0.6-0.1,1.3-0.2,1.9
		c-0.1,0.8-0.3,1.7-0.5,2.5c-0.3,2.1-0.5,4.2-0.8,6.3c-0.1,0.6-0.2,0.7-0.7,0.8c-1.6,0.2-3.1,0.5-4.7,0.7c-0.1,0-0.1,0-0.3,0
		c-0.1-0.2-0.2-0.3-0.2-0.5c-0.5-2.7-1-5.4-1.5-8.2c-0.7-4-1.3-8-1.9-12c-0.5-2.8-0.9-5.5-1.4-8.3c-0.3-1.5-0.5-3.1-0.7-4.6
		c-0.2-1.1-0.4-2.1-0.5-3.2c-0.1-0.5,0-0.5,0.5-0.6c1.4-0.2,2.8-0.4,4.2-0.7c0.6-0.1,0.8,0,0.9,0.6c0.3,1.9,0.5,3.7,0.7,5.6
		C36,61.8,35.8,62,35.8,62.1c-0.2-0.2-0.3-0.5-0.7-0.3c0,0.2,0.1,0.4,0.1,0.7C35.4,62.3,35.6,62.2,35.8,62.1z M40,79.8
		C39.9,79.8,39.8,79.8,40,79.8C39.8,79.8,39.9,79.8,40,79.8c0.2-0.1,0.3-0.1,0.6-0.2C40.2,79.4,40,79.4,40,79.8z M37.7,83.5
		c-0.1-0.1-0.1-0.2-0.2-0.3c-0.1,0.2-0.1,0.4-0.2,0.5c0,0,0.1,0,0.1,0.1C37.5,83.7,37.6,83.6,37.7,83.5
		C37.7,83.6,37.6,83.6,37.7,83.5C37.7,83.6,37.7,83.6,37.7,83.5z M41.2,62.4c0.2,0.1,0.3,0.2,0.4,0.4c0.2-0.2,0.3-0.3,0.5-0.5
		C41.6,61.9,41.6,61.9,41.2,62.4z M33.5,61.5c0,0.1,0,0.1,0,0.2c0.1,0,0.2-0.1,0.4-0.1c0,0,0-0.1,0-0.1
		C33.7,61.5,33.6,61.5,33.5,61.5z M41.9,78c-0.4,0.1-0.4,0.1-0.2,0.4C41.8,78.2,41.8,78.1,41.9,78z M41.3,80.4c0,0,0-0.1,0.1-0.1
		c0,0-0.1,0-0.1,0C41.3,80.2,41.3,80.3,41.3,80.4C41.3,80.3,41.3,80.4,41.3,80.4z M42,58c0.1,0,0.1,0.1,0.1,0.1c0,0,0.1-0.1,0.1-0.1
		c0,0-0.1-0.1-0.1,0C42,57.9,42,58,42,58z M34.2,70.6C34.2,70.6,34.2,70.6,34.2,70.6c0.1-0.1,0-0.2,0-0.2
		C34.2,70.5,34.1,70.5,34.2,70.6C34.1,70.6,34.2,70.6,34.2,70.6z M33.5,58.7L33.5,58.7L33.5,58.7L33.5,58.7z M44.4,68.4
		C44.4,68.4,44.4,68.4,44.4,68.4C44.4,68.4,44.4,68.4,44.4,68.4C44.4,68.4,44.4,68.4,44.4,68.4C44.4,68.4,44.4,68.4,44.4,68.4z
		 M42.5,77.3c0-0.1,0.1-0.1,0.1-0.2c0,0-0.1-0.1-0.1-0.1c0,0-0.1,0.1-0.1,0.1C42.4,77.2,42.4,77.2,42.5,77.3z M39.1,80.7L39.1,80.7
		L39.1,80.7L39.1,80.7z M32,61.3C32,61.3,32,61.3,32,61.3C32,61.3,32,61.3,32,61.3C32,61.3,32,61.3,32,61.3
		C32.1,61.3,32,61.3,32,61.3z M31.3,57.6C31.3,57.6,31.3,57.5,31.3,57.6c0.1-0.1,0-0.1,0-0.1C31.3,57.5,31.2,57.5,31.3,57.6
		C31.2,57.6,31.2,57.6,31.3,57.6z M44.8,62.8C44.9,62.8,44.9,62.8,44.8,62.8C44.9,62.8,44.8,62.8,44.8,62.8
		C44.8,62.8,44.8,62.8,44.8,62.8z"/>
	<path class="st0" d="M101,25.9c-0.1,0.2-0.2,0.3-0.4,0.4c0.1,0.1,0.2,0.2,0.3,0.2c0.4,0,0.5,0.2,0.6,0.5c0.3,0.7,0.5,1.4,0.7,2.1
		c0.1,0.3,0.3,0.7,0.3,1c0.1,1.3,0.3,2.7,0.1,4c-0.2,1.5-0.6,3-1.3,4.3c-1,1.6-2.3,2.8-4.1,3.5c-1.2,0.4-2.4,0.6-3.6,0.7
		c0,0-0.1,0-0.1,0c-0.8-0.1-1.6-0.2-2.4-0.3c-1.4-0.3-2.5-1.2-3.2-2.4c-0.7-1.1-0.9-2.2-1.1-3.4c0-0.2-0.2-0.5,0.1-0.6
		c0,0,0-0.1,0-0.2c-0.4-0.7-0.3-1.5-0.4-2.2c0-0.3-0.1-0.6,0.2-0.8c0.3-0.2,0.6-0.1,1,0.1c0.4-0.4,0.8-0.6,1.3-0.7
		c0.7-0.1,1.4-0.3,2.1-0.5c0.3-0.1,0.5-0.1,0.9-0.1c0,0.4,0.1,0.6,0.1,0.9c0.1,1.3,0.3,2.6,0.7,3.9c0.4,1.2,1.5,1.8,2.7,1.1
		c0.7-0.4,1.1-0.9,1.3-1.6c0.5-1.8,0.6-3.7-0.4-5.4c-0.4-0.8-0.9-1.5-1.4-2.2c-1.3-1.8-2.7-3.6-4.1-5.4c-1.7-2.2-3.2-4.6-3.7-7.4
		c-0.5-3-0.1-5.8,1.8-8.2c1.9-2.5,4.4-3.7,7.5-3.6c0.8,0,1.6,0.2,2.3,0.5c1.1,0.5,2,1.3,2.5,2.4c0.8,1.7,1.2,3.6,1.2,5.5
		c0,0.6,0,0.7-0.6,0.8c-1.5,0.4-2.9,0.7-4.4,1c-0.5,0.1-0.6,0-0.6-0.5c-0.1-0.7-0.1-1.5-0.2-2.2c-0.1-0.4-0.2-0.8-0.4-1.2
		c-0.6-1.3-2.1-1.4-3-0.3c-0.2,0.3-0.4,0.7-0.5,1.1c-0.4,1.6-0.3,3.2,0.5,4.6c0.9,1.6,1.9,3,3,4.4c1.2,1.6,2.4,3.3,3.6,4.9
		C100.4,24.9,100.7,25.4,101,25.9z M91.8,39.9C91.8,39.9,91.8,39.9,91.8,39.9L91.8,39.9z M88.9,32.8C88.9,32.7,88.9,32.6,88.9,32.8
		C88.8,32.6,88.9,32.7,88.9,32.8L88.9,32.8z M88.9,34.2L88.9,34.2c0.7,0.3,0.9,0.2,1.2-0.3c-0.2-0.1-0.4-0.2-0.7-0.3
		C89.2,33.8,89.1,34,88.9,34.2z M91.7,40.8c0.1,0.5,0.2,1,0.8,1c0-0.4,0.1-0.7,0.1-1C92.3,40.7,92.3,40.7,91.7,40.8
		c0.1-0.1,0.2-0.3,0.3-0.6C91.7,40.4,91.5,40.5,91.7,40.8z M91.3,39.7c0.3-0.3,0.5-0.6,0.8-0.8c0.2-0.2,0.5-0.2,0.9-0.4
		c-0.4-0.1-0.6-0.2-0.9-0.4c-0.2,0.2-0.4,0.4-0.7,0.6c-0.2,0-0.4-0.1-0.4-0.4c0-0.4-0.4-0.7-0.3-1.1c0,0-0.2-0.1-0.4-0.2
		c0,0.2,0,0.4,0,0.5c0.2,0.5,0.5,1,0.5,1.6C90.9,39.3,91.1,39.5,91.3,39.7z M93.9,38.5c0.1,0,0.1,0.1,0.2,0.1
		c0.2-0.1,0.4-0.3,0.7-0.5c-0.3-0.1-0.5-0.2-0.5-0.2C94,38.1,93.9,38.3,93.9,38.5z M89.3,35c0,0,0,0.1,0,0.1c0.3,0,0.6,0,0.9,0
		c-0.1-0.2-0.2-0.3-0.2-0.4C89.7,34.7,89.5,34.8,89.3,35z M97.6,29.6c-0.1-0.4-0.2-0.4-0.5-0.2C97.3,29.5,97.4,29.5,97.6,29.6z
		 M102.1,9.6C102,9.6,102,9.6,102.1,9.6c-0.1-0.1-0.2,0-0.2,0c0,0,0.1,0.1,0.1,0.1C102,9.7,102,9.7,102.1,9.6z M93.3,39
		c0,0,0.1,0,0.1,0c0,0,0-0.1-0.1-0.1C93.4,38.8,93.3,38.9,93.3,39C93.3,38.9,93.3,38.9,93.3,39z M88.2,32.6
		C88.1,32.6,88.1,32.7,88.2,32.6c-0.1,0.1,0,0.1,0,0.2c0,0,0.1-0.1,0.1-0.1C88.2,32.6,88.2,32.6,88.2,32.6z M92.2,37.7
		C92.2,37.7,92.2,37.6,92.2,37.7C92.1,37.7,92.1,37.7,92.2,37.7C92.1,37.7,92.2,37.7,92.2,37.7C92.2,37.7,92.2,37.7,92.2,37.7z
		 M97.4,12.4C97.4,12.4,97.5,12.4,97.4,12.4C97.5,12.4,97.5,12.4,97.4,12.4C97.4,12.4,97.4,12.4,97.4,12.4
		C97.4,12.4,97.4,12.4,97.4,12.4z M87.9,34.4L87.9,34.4L87.9,34.4L87.9,34.4z"/>
	<path class="st0" d="M49.9,71.4c-0.1-0.7-0.1-1.4-0.1-2.1c0-2.5,0-5,0-7.6c0-0.9-0.1-1.9-0.1-2.8c0-1.7,0-3.4,0.1-5.1
		c0-0.7,0-0.7,0.7-0.8c1.9-0.3,3.8-0.6,5.7-0.8c1.9-0.3,3.8-0.5,5.7-0.8c0.3,0,0.5,0,0.9,0c0,1.1,0,2,0.1,3c0,0.6,0,1.1,0,1.7
		c0,0.4-0.2,0.6-0.5,0.7c-0.4,0.1-0.7,0.2-1.1,0.3c-1.7,0.3-3.4,0.5-5.1,0.8c-0.6,0.1-0.6,0.2-0.6,0.7c0,1,0.1,2,0.1,3.1
		c0,0.7-0.1,1.5-0.1,2.2c0,1.2,0,2.4,0,3.6c0,0.1,0.1,0.2,0.1,0.4c1.7-0.1,3.3-0.7,4.9-0.6c0.3,0.6,0.4,5.3,0.2,6.1
		c-1.6,0.3-3.3,0.6-5,0.8c-0.1,0.6-0.2,1.1-0.2,1.6c0.1,0.3,0.2,0.6,0.2,1c0,0.7,0,1.3,0,2c0,0.2-0.2,0.5-0.3,0.7
		c0.3,0.1,0.4,0.4,0.4,0.8c0,1.1,0,2.2,0.1,3.4c0,0.2,0,0.4,0,0.6c0,0.4,0.1,0.5,0.6,0.5c0.9-0.1,1.8-0.3,2.8-0.4
		c1.1-0.1,2.1-0.3,3.2-0.4c0.2,0,0.4,0,0.6,0c0,0.2,0.1,0.5,0.1,0.7c0,1.5,0,2.9,0,4.4c0,0.4-0.1,0.6-0.5,0.6
		c-0.6,0.1-1.2,0.2-1.8,0.3c-3.2,0.5-6.3,1-9.5,1.5c-0.1,0-0.2,0-0.3,0c-0.7,0.1-0.9,0-0.9-0.7c0-3.4,0-6.9,0-10.3
		c0-2.2-0.1-4.4-0.2-6.6C49.8,73,49.9,72.2,49.9,71.4C49.9,71.4,50,71.4,49.9,71.4C50,71.4,50,71.4,49.9,71.4z M52.2,76.3
		C52.2,76.3,52.2,76.3,52.2,76.3c0,0.1-0.1,0.1-0.2,0.1c0,0,0,0,0,0C52.1,76.4,52.2,76.4,52.2,76.3z M52,62.2c1,0.4,1.1,0.4,1.6-0.3
		C53.1,62,52.6,62.1,52,62.2z M50.2,82.5c0,0,0.1,0.1,0.1,0.1c0.1-0.1,0.1-0.2,0.2-0.3c0,0-0.1,0-0.1-0.1
		C50.4,82.3,50.3,82.4,50.2,82.5z M54.6,79.1c0,0,0.1,0,0.1,0c0,0,0-0.1,0-0.1c0,0-0.1,0-0.1,0C54.6,79.1,54.6,79.1,54.6,79.1z
		 M55.4,86.2c0,0,0.1-0.1,0.1-0.1c0,0,0-0.1-0.1-0.1c-0.1,0-0.1,0-0.2,0.1C55.4,86.1,55.4,86.2,55.4,86.2z M50.7,79.1
		c0-0.1-0.1-0.1-0.1-0.1c-0.1,0-0.1,0.1-0.1,0.1c0,0,0.1,0.1,0.1,0.1C50.6,79.2,50.6,79.1,50.7,79.1z M51.3,78.9
		C51.2,78.9,51.2,78.9,51.3,78.9c-0.1-0.1-0.2,0-0.2,0C51.1,78.9,51.1,79,51.3,78.9C51.2,79,51.2,78.9,51.3,78.9z M50.2,61.4
		C50.2,61.4,50.2,61.5,50.2,61.4c0,0.1,0,0.1,0,0.1C50.2,61.5,50.2,61.5,50.2,61.4C50.2,61.4,50.2,61.4,50.2,61.4z M51.4,78
		C51.4,78,51.4,78,51.4,78c-0.1,0-0.1,0-0.1,0C51.4,78,51.4,78,51.4,78C51.4,78.1,51.4,78,51.4,78z M52.7,57.1
		C52.7,57,52.7,57,52.7,57.1C52.6,57,52.5,57,52.5,57c0,0,0,0.1,0.1,0.1C52.6,57.1,52.6,57.1,52.7,57.1z M54,58.6
		C54,58.5,54,58.5,54,58.6c0.1-0.1,0.1-0.1,0-0.1C54,58.5,54,58.5,54,58.6C53.9,58.5,53.9,58.6,54,58.6z M54.1,75.3
		C54.2,75.4,54.2,75.4,54.1,75.3C54.2,75.4,54.2,75.3,54.1,75.3C54.2,75.3,54.2,75.3,54.1,75.3z M50.5,81.8
		C50.5,81.8,50.5,81.8,50.5,81.8C50.5,81.8,50.5,81.7,50.5,81.8C50.4,81.8,50.4,81.8,50.5,81.8C50.5,81.8,50.5,81.8,50.5,81.8z
		 M60,88C60,88.1,60,88.1,60,88C60,88.1,60,88.1,60,88C60,88.1,60,88.1,60,88C60,88.1,60,88.1,60,88z M54.7,85.6
		C54.7,85.6,54.7,85.6,54.7,85.6C54.7,85.6,54.7,85.6,54.7,85.6C54.7,85.6,54.7,85.5,54.7,85.6C54.7,85.5,54.7,85.5,54.7,85.6z
		 M52,57.2L52,57.2L52,57.2L52,57.2z"/>
	<path class="st0" d="M150.8,39.2c0,0.5,0.1,0.9,0.1,1.4c0,0.9,0,1.8,0,2.6c0,0.8,0,0.9-0.8,1c-1.5,0.2-3.1,0.4-4.6,0.6
		c-0.5,0.1-1,0.2-1.5,0.3c-0.3,0.1-0.4,0.2-0.4,0.5c0,0.4-0.1,0.9-0.1,1.3c0,1.1,0,2.1,0.1,3.2c0,1.1,0.1,2.2,0.1,3.4
		c0,0.4-0.1,0.8-0.1,1.1c0,0.2,0.1,0.3,0.1,0.6c1.7-0.1,3.3-0.5,5-0.5c0,0.2,0.1,0.3,0.1,0.5c0,1.6,0,3.1,0,4.7
		c0,0.7-0.1,0.8-0.8,0.9c-1.2,0.2-2.4,0.4-3.6,0.6c-0.7,0.1-0.8,0.2-0.8,0.9c0,1.1,0,2.3,0,3.4c0,1.8,0,3.6,0,5.4
		c0,0.7,0.2,0.9,0.9,0.8c0.2,0,0.4,0,0.6,0c0.4,0.2,0.7,0.1,1-0.1c0.3-0.3,0.7-0.4,1.1-0.4c1.2-0.1,2.3-0.2,3.5-0.4
		c0,0.3,0.1,0.5,0.1,0.7c0,1.2,0,2.4,0,3.6c0,0.2,0,0.4-0.1,0.6c-0.1,0.4-0.3,0.7-0.8,0.8c-0.2,0-0.4,0.1-0.6,0.1
		c-1.6,0.2-3.2,0.4-4.8,0.7c-1.1,0.2-2.1,0.4-3.2,0.5c-1.1,0.2-2.2,0.3-3.3,0.4c0-0.3-0.1-0.5-0.1-0.7c0-3.1,0-6.2,0-9.3
		c0-3.8,0-7.7,0-11.5c0-4.3,0.1-8.7,0.1-13c0-1,0-2,0-3c0-0.7,0-0.7,0.8-0.8c1.8-0.3,3.5-0.5,5.3-0.8c0.5-0.1,0.9-0.1,1.4-0.1
		c0.4,0,0.9,0.1,1.4,0.2c0-0.1,0-0.2-0.1-0.4c0.5-0.1,1-0.2,1.5-0.2c0.7-0.1,1.3-0.2,2-0.3C150.9,38.5,150.9,38.6,150.8,39.2
		C150.8,39.2,150.8,39.2,150.8,39.2L150.8,39.2z M141,75.7C141,75.7,141,75.7,141,75.7L141,75.7z M150.2,39.7c0.1,0,0.1,0.1,0.2,0.1
		c0,0,0-0.1,0-0.1C150.4,39.8,150.3,39.8,150.2,39.7L150.2,39.7C150.2,39.8,150.2,39.7,150.2,39.7z M148.5,41.9
		c-0.4,0-0.4,0-0.6,0.3C148.1,42.1,148.3,42,148.5,41.9L148.5,41.9z M145.4,72.4c-0.1,0.4,0,0.7-0.2,0.8c-0.3,0.4,0,0.5,0.2,0.8
		c0.2-0.4,0.3-0.7,0.4-1C145.7,72.9,145.6,72.8,145.4,72.4z M145.1,76.5c0.3-0.6,0.2-0.7-0.3-1.1C144.7,75.8,144.7,75.8,145.1,76.5z
		 M140.7,76.4c-0.2-0.3-0.4-0.4-0.6-0.2c0,0,0,0.1-0.1,0.2C140.3,76.5,140.4,76.5,140.7,76.4z M142.1,48.4c0,0,0,0.1-0.1,0.1
		c0.1,0,0.2,0.1,0.4,0.1c0,0,0-0.1,0-0.1C142.3,48.5,142.2,48.5,142.1,48.4z M141.3,49.3c0,0,0-0.1,0.1-0.1c-0.1,0-0.1,0-0.2-0.1
		c0,0,0,0.1,0,0.1C141.2,49.2,141.2,49.2,141.3,49.3z M149.1,43.3C149.1,43.3,149.1,43.3,149.1,43.3c-0.1-0.1-0.2,0-0.2,0
		c0,0,0.1,0.1,0.1,0.1C149,43.4,149.1,43.3,149.1,43.3z M139.6,68.1c0,0-0.1,0-0.1,0.1c0,0,0,0.1,0,0.1
		C139.6,68.2,139.6,68.2,139.6,68.1C139.7,68.1,139.6,68.1,139.6,68.1z M139.1,71.4L139.1,71.4L139.1,71.4L139.1,71.4z M139.8,56.6
		C139.8,56.6,139.8,56.6,139.8,56.6C139.7,56.6,139.7,56.7,139.8,56.6C139.8,56.7,139.8,56.7,139.8,56.6
		C139.8,56.7,139.8,56.6,139.8,56.6z M139.8,55.9c0,0,0-0.1,0.1-0.1c0,0-0.1,0-0.1,0c0,0,0,0.1,0,0.1
		C139.7,55.8,139.7,55.8,139.8,55.9z M141.7,75.9c0,0,0.1,0,0.1,0c0,0,0-0.1,0-0.1c0,0-0.1,0-0.1,0
		C141.7,75.8,141.7,75.9,141.7,75.9z M147.1,59C147.1,59.1,147.1,59.1,147.1,59c0.1,0.1,0.1,0,0.1,0C147.2,59,147.2,59,147.1,59
		C147.1,59,147.1,59,147.1,59z M144.3,75.9L144.3,75.9L144.3,75.9L144.3,75.9z M144.9,74.5C144.9,74.5,145,74.5,144.9,74.5
		c0-0.1,0-0.1,0-0.1C144.9,74.5,144.9,74.5,144.9,74.5C144.9,74.5,144.9,74.5,144.9,74.5z M138.3,56.4
		C138.3,56.4,138.3,56.4,138.3,56.4C138.3,56.4,138.2,56.4,138.3,56.4C138.2,56.4,138.2,56.5,138.3,56.4
		C138.3,56.5,138.3,56.4,138.3,56.4z M139.7,75.8C139.7,75.7,139.7,75.7,139.7,75.8C139.7,75.7,139.6,75.7,139.7,75.8
		C139.6,75.7,139.6,75.7,139.7,75.8C139.6,75.7,139.6,75.7,139.7,75.8z M149.1,40.5L149.1,40.5L149.1,40.5L149.1,40.5z"/>
	<path class="st0" d="M51.9,11.3c0.2,0,0.3,0,0.5,0c-0.1-0.1-0.1-0.2-0.1-0.2c-0.4-0.2-0.4-0.5-0.4-0.8c0.1-0.3,0.3-0.5,0.6-0.5
		c0.3,0,0.6-0.1,0.9-0.1c0.2,0,0.4,0.1,0.5,0.2c0.2,0.1,0.4,0.2,0.7,0c-0.2-0.1-0.3-0.1-0.5-0.2c0,0,0-0.1,0-0.1
		c0.5-0.1,1-0.2,1.5-0.2C57.4,9,59.2,8.8,61,8.5c0.2,0,0.4,0,0.6,0c0.1,0,0.2,0,0.3,0C62.6,8,63.4,8.2,64.2,8
		c0.4-0.1,0.5,0.1,0.5,0.5c0,0,0,0.1,0,0.1c0,1.5,0,2.9,0,4.4c0,0.6-0.1,0.6-0.6,0.7c-2,0.3-4,0.6-6,0.9c-0.6,0.1-0.6,0.1-0.6,0.8
		c0,2.2,0,4.5,0,6.7c0,0.7,0,1.5,0,2.2c0,0.6,0.1,0.7,0.7,0.6c1.2-0.2,2.5-0.4,3.7-0.5c0.2,0,0.4,0,0.7-0.1c0,0.7,0.1,1.3,0.1,2
		c0,1.1,0,2.1,0,3.2c0,0.7-0.1,0.7-0.7,0.8c-1.3,0.2-2.7,0.5-4,0.7c-0.3,0.1-0.5,0.2-0.5,0.5c0,0.5,0,1,0,1.4c0,2.1,0,4.2,0,6.4
		c0,0.6-0.1,1.2-0.1,1.8c0,0.5,0.1,0.5,0.5,0.5c1.6-0.2,3.2-0.4,4.8-0.6c0.6-0.1,1.3-0.2,2-0.2c0.3,1.9-0.3,3.7,0.2,5.5
		c-0.5,0.3-0.8,0.3-1-0.1c-0.5,0.3-1,0.5-1.6,0.5c-1.2,0.1-2.3,0.4-3.5,0.6c-2,0.3-4,0.6-6,0.9C52,48.2,52,48.2,52,47.5
		c0-1,0-2.1,0-3.2c0.1,0,0.3-0.1,0.4-0.1c0-0.1,0-0.1,0-0.2c-0.4-0.3-0.5-0.7-0.5-1.1c0-1.9,0.1-3.9,0.1-5.8c0-1.4-0.1-2.7-0.1-4.1
		c0-2.2-0.1-4.4-0.1-6.6c0-3.1,0-6.2,0-9.2C51.7,15.3,51.8,13.3,51.9,11.3z M54.4,31.3L54.4,31.3L54.4,31.3
		C54.4,31.3,54.4,31.3,54.4,31.3z M57.8,28.9L57.8,28.9c-0.1,0.1-0.2,0.1-0.3,0.2c0,0,0.1,0,0.1,0.1C57.7,29.1,57.7,29,57.8,28.9z
		 M59.8,27.7c0.3-0.3,0.6-0.7,0.8-1C60,26.7,59.8,27.2,59.8,27.7z M55.2,36.2c0,0,0.1,0,0.1,0c0-0.1,0-0.1,0-0.2c0,0-0.1,0-0.1,0
		C55.3,36,55.2,36.1,55.2,36.2z M53.2,10.4c0,0,0-0.1,0-0.1c-0.1,0-0.2,0.1-0.3,0.1c0,0,0,0.1,0.1,0.1C53,10.4,53.1,10.4,53.2,10.4z
		 M52.9,25.8c0-0.1,0.1-0.1,0.1-0.2c0,0-0.1-0.1-0.1-0.1c0,0-0.1,0.1-0.1,0.1C52.8,25.7,52.8,25.7,52.9,25.8z M56.1,30.1
		c0-0.1,0.1-0.1,0.1-0.2c0,0-0.1,0-0.1,0C56,29.9,56,29.9,56.1,30.1C56,30,56.1,30,56.1,30.1z M54.6,34.4
		C54.6,34.4,54.5,34.3,54.6,34.4c-0.1-0.1-0.1,0-0.1,0C54.5,34.4,54.5,34.4,54.6,34.4C54.5,34.4,54.6,34.4,54.6,34.4z M54.5,32.2
		C54.5,32.1,54.5,32.1,54.5,32.2c0.1-0.1,0.1-0.1,0.1-0.1C54.5,32.1,54.5,32.1,54.5,32.2C54.5,32.1,54.5,32.1,54.5,32.2z M54.1,14.1
		C54.1,14.1,54,14.1,54.1,14.1c-0.1,0-0.1,0-0.1,0C54,14.1,54,14.2,54.1,14.1C54,14.2,54.1,14.1,54.1,14.1z M61,26.1
		C61,26,61,26,61,26.1C61,26.1,60.9,26.1,61,26.1C61,26.1,61,26.1,61,26.1C61,26.1,61,26.1,61,26.1z M58.3,11.9
		C58.3,12,58.3,12,58.3,11.9c0.1,0.1,0.1,0,0.1,0C58.4,11.9,58.4,11.9,58.3,11.9C58.3,11.9,58.3,11.9,58.3,11.9z M58.1,29.4
		L58.1,29.4L58.1,29.4L58.1,29.4z M57.2,30.1C57.2,30.1,57.2,30.1,57.2,30.1C57.2,30.1,57.2,30.1,57.2,30.1
		C57.2,30.1,57.2,30.1,57.2,30.1C57.2,30.1,57.2,30.1,57.2,30.1z M56,36.2C56,36.2,56,36.2,56,36.2C56,36.2,56,36.2,56,36.2
		C56,36.2,56,36.2,56,36.2z M53.5,25.8C53.5,25.8,53.5,25.8,53.5,25.8C53.5,25.8,53.5,25.8,53.5,25.8C53.5,25.8,53.4,25.8,53.5,25.8
		C53.4,25.8,53.4,25.8,53.5,25.8z M53.2,14.7C53.2,14.7,53.2,14.7,53.2,14.7C53.2,14.7,53.2,14.7,53.2,14.7
		C53.2,14.7,53.2,14.7,53.2,14.7C53.2,14.7,53.2,14.7,53.2,14.7z M52.2,37.1L52.2,37.1L52.2,37.1L52.2,37.1z"/>
	<path class="st0" d="M109.4,39.7c0-0.3-0.1-0.6-0.1-0.8c0-1.4,0-2.7,0.1-4.1c0.1-1.4,0-2.7,0-4.1c0-1.4,0-2.7-0.1-4.1
		c0-3.4,0-6.7,0-10.1c0-0.6,0-1.2,0-1.9c0-2.1,0-4.3-0.1-6.4c0-0.3,0-0.6,0-0.9c-1.8,0.3-3.5,0.7-5.2,0.8c0-0.2-0.1-0.3-0.1-0.4
		c0-1.5,0-3.1,0-4.6c0-0.7,0.1-0.8,0.8-0.9c2.2-0.3,4.4-0.6,6.6-1c2.8-0.4,5.5-0.8,8.3-1.2c0.3,0,0.5,0,0.8-0.1
		c0,0.3,0.1,0.5,0.1,0.7c0,1.5,0,2.9,0.1,4.4c0,0.6-0.1,0.7-0.7,0.8c-1.3,0.2-2.5,0.4-3.8,0.6c-0.9,0.1-0.9,0.1-0.9,1.1
		c0,3.5,0.1,6.9,0.1,10.4c0,1-0.1,2-0.1,3c0,1.1,0.1,2.2,0.1,3.4c0,3.9,0.1,7.8,0.1,11.7c0,0.8,0,1.7,0,2.5c0,0.7-0.1,0.8-0.8,0.9
		c-0.8,0.1-1.6,0.2-2.3,0.3c-0.6,0.1-1.3,0.2-1.9,0.3C109.8,39.7,109.7,39.7,109.4,39.7z M113,28.7L113,28.7c-0.2,0-0.4,0-0.7,0.1
		c0.2,0.2,0.4,0.4,0.5,0.5c0.2,0.1,0.4,0.2,0.5-0.1C113.4,29,113.3,28.9,113,28.7z M112.4,28.2c0.1,0,0.2,0.1,0.4,0.1
		c0.1-0.3,0.1-0.5,0.2-0.8c0,0-0.1,0-0.1,0C112.8,27.7,112.6,27.9,112.4,28.2z M109.5,32.8c0.5-0.2,0.5-0.2,0.4-0.5c0,0-0.1,0-0.2,0
		C109.7,32.4,109.6,32.6,109.5,32.8z M110,4.4c-0.1,0-0.1,0-0.2,0c0,0.2,0.1,0.5,0.1,0.7C110.1,4.9,110.2,4.6,110,4.4z M109.7,3.6
		c0-0.1,0-0.2,0-0.2c0,0-0.1-0.1-0.1-0.1c0,0-0.1,0.1-0.1,0.1C109.6,3.5,109.6,3.6,109.7,3.6z M111.6,28.4c0.1,0.1,0.1,0.2,0.2,0.2
		c0.1,0,0.1-0.1,0.2-0.1c0,0-0.1-0.1-0.1-0.1C111.8,28.3,111.7,28.3,111.6,28.4z M110,31.7c0,0,0.1,0,0.1-0.1c0,0,0-0.1,0-0.1
		c0,0,0,0-0.1,0C110,31.6,110,31.7,110,31.7z M112.8,16.6C112.8,16.6,112.8,16.6,112.8,16.6c0-0.1,0-0.1,0-0.1
		C112.8,16.5,112.7,16.5,112.8,16.6C112.7,16.5,112.8,16.5,112.8,16.6z M117.3,2.8C117.3,2.8,117.4,2.7,117.3,2.8c0-0.1,0-0.1,0-0.1
		c0,0-0.1,0-0.1,0C117.3,2.7,117.3,2.7,117.3,2.8z M110.5,3.9C110.5,3.9,110.5,3.8,110.5,3.9C110.5,3.8,110.5,3.8,110.5,3.9
		C110.5,3.8,110.4,3.8,110.5,3.9C110.5,3.9,110.5,3.9,110.5,3.9z M111.8,5.4C111.8,5.4,111.8,5.4,111.8,5.4
		C111.8,5.3,111.8,5.3,111.8,5.4C111.8,5.3,111.8,5.4,111.8,5.4C111.8,5.4,111.8,5.4,111.8,5.4z M110.3,34.9L110.3,34.9L110.3,34.9
		L110.3,34.9z"/>
	<path class="st0" d="M122.4,42.7c1.8-0.3,3.6-0.7,5.5-0.9c0,0.3,0.1,0.5,0.1,0.7c0,3.6-0.1,7.1-0.1,10.7c0,3,0,6.1,0,9.1
		c0,1.1-0.1,2.2-0.1,3.3c0,0.5,0.1,0.9,0.1,1.4c0,1.5,0,3,0,4.6c0,0.9,0,1.8,0,2.6c0,0.6,0.1,0.6,0.6,0.6c1-0.1,2.1-0.3,3.1-0.4
		c0.9-0.1,1.8-0.2,2.7-0.3c0.7-0.1,1.1,0.3,1.1,1c0,1.2,0,2.3,0,3.5c0,0.3-0.1,0.5-0.4,0.5c-0.4,0.1-0.8,0.1-1.1,0.2
		c-2,0.3-4,0.6-5.9,0.8c-1.6,0.2-3.2,0.4-4.7,0.6c-0.7,0.1-0.9,0-0.9-0.7c-0.1-1.5-0.1-2.9-0.1-4.4c0-3.3,0-6.5,0-9.8
		c0-3.5,0-7,0-10.4c0-3.8,0-7.6,0.1-11.4C122.4,43.5,122.4,43.1,122.4,42.7z M127.6,53.7L127.6,53.7
		C127.6,53.7,127.6,53.7,127.6,53.7z M125.7,42.8C125.7,42.8,125.7,42.8,125.7,42.8C125.7,42.8,125.7,42.8,125.7,42.8
		C125.7,42.9,125.7,42.9,125.7,42.8C125.7,42.9,125.7,42.9,125.7,42.8z M129.9,78.6c-0.1-0.1-0.1-0.2-0.2-0.2c0,0,0,0-0.1,0
		C129.7,78.5,129.8,78.5,129.9,78.6C129.9,78.6,129.9,78.6,129.9,78.6C129.9,78.7,129.9,78.6,129.9,78.6
		C129.9,78.6,129.9,78.6,129.9,78.6z M124.6,54.8c0.1,0,0.2,0.1,0.2,0.1c0,0,0-0.1,0-0.1C124.8,54.8,124.7,54.8,124.6,54.8
		L124.6,54.8z M126,52.7C126,52.7,126,52.7,126,52.7C126,52.7,126,52.7,126,52.7c-0.2,0-0.3,0.1-0.2,0.3c0.2,0.5,0.3,1.1,0.5,1.7
		c0.3,0.1,0.5,0,0.6-0.4c-0.4-0.3-0.7-0.7-0.5-1.1C126.4,52.9,126.2,52.9,126,52.7z M123.7,79.9c-0.3-0.1-0.6,0-0.9,0.3
		C123.2,80.3,123.5,80.2,123.7,79.9z M124.2,55.4c0-0.7,0-0.7-0.3-0.9c0.1,0.3,0.1,0.5,0.2,0.8C124.1,55.4,124.1,55.4,124.2,55.4z
		 M123.4,43.8c0.5-0.1,0.6-0.2,0.5-0.4c0-0.1-0.2-0.1-0.2-0.1C123.6,43.4,123.5,43.6,123.4,43.8z M125.5,79.1
		c0.2,0.1,0.3,0.1,0.4,0.1c0,0,0.1-0.1,0.1-0.1c-0.1,0-0.1-0.1-0.2-0.1C125.7,78.9,125.7,79,125.5,79.1z M126.8,79
		c0-0.1,0-0.1,0-0.2c-0.1,0-0.2,0.1-0.4,0.1c0,0,0,0.1,0,0.1C126.6,79.1,126.7,79,126.8,79z M127,51.9c0.1-0.1,0.1-0.1,0.2-0.1
		c0,0-0.1-0.1-0.1-0.1c0,0-0.1,0.1-0.1,0.1C126.9,51.7,127,51.8,127,51.9z M125.5,67.6c0-0.1,0.1-0.1,0.1-0.2c0-0.1-0.1-0.1-0.1-0.2
		c0,0-0.1,0.1-0.1,0.1C125.4,67.5,125.4,67.5,125.5,67.6z M124.8,72.2c0,0,0-0.1,0-0.1c-0.1,0-0.2,0-0.2,0c0,0,0,0.1,0,0.1
		C124.7,72.1,124.7,72.1,124.8,72.2z M122.8,55.6c0,0,0.1,0.1,0.1,0.1c0.1-0.1,0.1-0.1,0.2-0.2c0,0,0-0.1-0.1-0.1
		C123,55.5,122.9,55.6,122.8,55.6z M125.6,54.8C125.6,54.8,125.5,54.7,125.6,54.8c-0.1-0.1-0.1,0-0.2,0
		C125.4,54.8,125.5,54.8,125.6,54.8C125.5,54.8,125.6,54.8,125.6,54.8z M123.3,56.4C123.3,56.4,123.3,56.4,123.3,56.4
		C123.3,56.4,123.3,56.3,123.3,56.4C123.3,56.3,123.3,56.3,123.3,56.4C123.3,56.3,123.3,56.3,123.3,56.4z M122.6,55
		C122.6,55,122.6,54.9,122.6,55c0-0.1,0-0.1,0-0.1C122.5,54.9,122.5,54.9,122.6,55C122.5,54.9,122.6,55,122.6,55z M123.2,76.6
		C123.2,76.6,123.2,76.6,123.2,76.6c0-0.1-0.1,0-0.1,0c0,0,0,0.1,0,0.1C123.1,76.6,123.2,76.6,123.2,76.6z M130.2,75
		c0,0,0.1,0,0.1,0c0-0.1,0-0.1,0-0.2c0,0-0.1,0-0.1,0.1C130.2,74.9,130.2,74.9,130.2,75z M126.8,55.7c0,0,0.1,0,0.1,0
		c0,0,0-0.1,0-0.1c0,0-0.1,0-0.1,0C126.8,55.6,126.8,55.6,126.8,55.7z M123.5,55.6C123.5,55.6,123.5,55.6,123.5,55.6
		c-0.1,0.1,0,0.1,0,0.1C123.5,55.7,123.6,55.6,123.5,55.6C123.6,55.6,123.5,55.6,123.5,55.6z M134.1,78.5
		C134.1,78.5,134.1,78.5,134.1,78.5C134,78.5,134,78.6,134.1,78.5C134,78.6,134.1,78.6,134.1,78.5C134.1,78.6,134.1,78.6,134.1,78.5
		z M134.8,78.4C134.8,78.5,134.8,78.5,134.8,78.4C134.8,78.5,134.8,78.5,134.8,78.4C134.8,78.5,134.9,78.5,134.8,78.4
		C134.9,78.5,134.8,78.5,134.8,78.4z M130.9,78.7L130.9,78.7L130.9,78.7L130.9,78.7z M126.9,66.6C126.9,66.6,126.9,66.6,126.9,66.6
		C126.9,66.6,126.9,66.6,126.9,66.6C126.9,66.6,126.9,66.6,126.9,66.6C126.9,66.6,126.9,66.6,126.9,66.6z"/>
	<path class="st0" d="M26.9,56.7c0,1,0,2,0,2.9c0,1.8,0,3.7,0.1,5.5c0,2.9,0,5.8,0.1,8.7c0,1.5,0,2.9,0,4.4c0,1.5,0,3.1,0,4.6
		c0,1.6,0,3.2,0,4.9c0,0.3-0.1,0.7-0.1,1c0,0.1,0,0.2,0,0.2c0.3,0.3,0.2,0.8,0.2,1.2c0,1.4,0.1,2.9,0.1,4.3c0,0.8,0,0.8-0.7,0.9
		c-1.1,0.2-2.2,0.3-3.3,0.4c-0.5,0.1-0.9,0-1.5,0c0-0.2-0.1-0.4-0.1-0.6c-0.1-3-0.2-6.1-0.2-9.1c0-1-0.1-2.1-0.1-3.1
		c0-1-0.1-2.1-0.1-3.1c0-1.8-0.1-3.6-0.1-5.4c0-3.2-0.1-6.4-0.1-9.6c0-2.2,0-4.4-0.1-6.7c0-0.3,0.1-0.5,0.5-0.6
		c1.5-0.2,3-0.5,4.5-0.7C26.4,56.7,26.6,56.7,26.9,56.7z M22.9,63.3C22.9,63.3,22.9,63.3,22.9,63.3L22.9,63.3L22.9,63.3z M22.7,81.2
		C22.7,81.2,22.7,81.1,22.7,81.2L22.7,81.2z M23.6,85.9C23.6,85.9,23.6,85.9,23.6,85.9C23.6,85.9,23.6,85.9,23.6,85.9
		C23.6,85.9,23.6,85.9,23.6,85.9C23.6,86,23.6,86,23.6,85.9C23.6,86,23.6,85.9,23.6,85.9z M24.5,60.6c0-0.1-0.1-0.2-0.1-0.3
		c0,0-0.1,0-0.1,0C24.4,60.4,24.5,60.5,24.5,60.6L24.5,60.6L24.5,60.6z M23.9,95c0,0,0,0.1,0,0.1c0.1,0,0.2,0.1,0.3,0.1
		c0.8-0.1,1.6-0.3,2.4-0.4c0.1,0,0.1-0.2,0.2-0.4c-0.3,0.1-0.5,0-0.7,0.1c-0.5,0.3-1,0.2-1.5,0.2C24.3,94.8,24.1,94.9,23.9,95z
		 M23.4,80.9c0.5,0,0.8-0.2,0.8-0.7c-0.2,0.1-0.5,0.2-0.7,0.2C23.5,80.6,23.4,80.7,23.4,80.9z M22.8,87.2C22.9,87.1,23,87,23,87
		c0-0.1,0-0.2,0-0.2c-0.1,0-0.2,0.1-0.2,0.1C22.8,87,22.8,87,22.8,87.2z M23.4,60.5c0.1,0,0.1,0,0.2,0c0,0,0-0.1,0.1-0.1
		c-0.1,0-0.1-0.1-0.2-0.1C23.5,60.3,23.5,60.4,23.4,60.5z M25,78.9C25,78.8,25,78.8,25,78.9C25,78.8,25,78.9,25,78.9
		C25,78.9,25,78.9,25,78.9z M24.8,82.3C24.9,82.3,24.9,82.3,24.8,82.3C24.9,82.3,24.9,82.3,24.8,82.3C24.9,82.3,24.8,82.3,24.8,82.3
		C24.8,82.3,24.8,82.3,24.8,82.3z M26.5,74.7c0,0,0,0.1,0.1,0.1c0,0,0.1,0,0.1-0.1C26.6,74.7,26.6,74.7,26.5,74.7
		C26.5,74.7,26.5,74.7,26.5,74.7z M23.5,95.1C23.4,95.1,23.4,95.1,23.5,95.1c-0.1,0.1,0,0.1,0,0.1C23.5,95.1,23.5,95.1,23.5,95.1
		C23.5,95.1,23.5,95.1,23.5,95.1z M22.4,89.7C22.4,89.7,22.4,89.7,22.4,89.7C22.4,89.7,22.4,89.7,22.4,89.7
		C22.4,89.7,22.4,89.7,22.4,89.7z M25.4,78.7C25.4,78.7,25.4,78.6,25.4,78.7C25.4,78.7,25.4,78.7,25.4,78.7
		C25.4,78.7,25.4,78.7,25.4,78.7C25.4,78.7,25.4,78.7,25.4,78.7z"/>
	<path class="st0" d="M9.4,28.4c-0.1-0.5-0.2-1,0-1.6c0.9-0.2,1.8-0.4,2.7-0.3c0.1,2.6,0,5.2,0.1,7.9c0.7-0.1,1.3-0.2,1.9-0.3
		c0.3-0.1,0.4-0.3,0.4-0.6c0-0.4,0-0.8,0-1.2c0-0.3,0.1-0.7,0.1-1c0-0.1,0-0.2,0-0.3c-0.3-1.3-0.1-2.7-0.1-4c0-0.5,0.5-1.1,1-1.2
		c0.6-0.1,1.1-0.2,1.7-0.2c0,0.2,0.1,0.4,0.1,0.6c0,1.5,0,3,0,4.6c0,0.4,0,0.7-0.5,0.8c0.1,0.3,0.1,0.5,0.2,0.7
		c-0.1,0-0.1,0-0.2,0.1c0,0,0,0.1,0.1,0.1c0-0.1,0.1-0.1,0.1-0.2c0.2,0.2,0.5,0.3,0.1,0.6c-0.3,0.2-0.2,0.4,0,0.5
		c0.2,0.2,0.3,0.4,0.3,0.6c0,1.8,0,3.6,0,5.3c0,0.2,0,0.4,0,0.6c-0.2,0.1-0.4,0.1-0.6,0.2c-0.1,0.5,0.3,0.4,0.6,0.6
		c0,1,0.1,1.9,0,2.9c0,0.2-0.1,0.4,0,0.7c0.1,0.3,0.1,0.6-0.3,0.7c-0.8,0.1-1.5,0.2-2.4,0.4c0-0.3-0.1-0.5-0.1-0.7
		c0-1.3,0-2.6,0-3.9c0-0.2,0.1-0.5,0.1-0.7c0-0.1,0.1-0.1,0-0.2c-0.4-0.6-0.1-1.3-0.2-2c0-0.1,0-0.3,0-0.4c0-0.3-0.2-0.4-0.5-0.4
		c-0.5,0.1-0.9,0.1-1.4,0.2c-0.3,0-0.5,0.2-0.5,0.5c0,0.2,0,0.4,0,0.6c0,1.3-0.1,2.6-0.1,3.8c0,0.9,0.1,1.8,0.1,2.7
		c0,0.6-0.1,0.7-0.7,0.8c-0.7,0.1-1.3,0.2-2.1,0.2c0-0.3-0.1-0.5-0.1-0.7c0-1.7,0-3.5,0-5.2c0-1.4,0-2.7,0-4.1
		c0-0.5,0.1-0.9,0.1-1.3c0-0.1,0.1-0.3,0-0.4c-0.3-1.2-0.1-2.4-0.1-3.6C9.3,29.7,9.3,29,9.4,28.4C9.4,28.4,9.5,28.4,9.4,28.4
		C9.5,28.4,9.4,28.4,9.4,28.4z M16.3,26c0,0.1,0,0.2,0,0.2c0,0,0.1,0,0.1,0C16.4,26.2,16.3,26.1,16.3,26C16.3,26,16.3,26,16.3,26
		C16.3,26,16.2,26,16.3,26C16.3,26,16.3,26,16.3,26z M15,43.2c0.2,0.2,0.2,0.2,0.4,0C15.3,43.2,15.2,43.2,15,43.2
		C15,43.2,15,43.2,15,43.2c-0.1,0-0.1,0-0.1,0C15,43.2,15,43.2,15,43.2z M15.1,30.8c0.2,0,0.6,0.3,0.5-0.3
		C15.4,30.7,15.2,30.7,15.1,30.8z M16.7,43.6c-0.1,0-0.1,0.1-0.2,0.1c0.1,0.1,0.2,0.2,0.2,0.3c0,0,0.1-0.1,0.1-0.1
		C16.8,43.8,16.7,43.7,16.7,43.6z M15.8,39.9c0,0-0.1,0.1-0.1,0.1c0.1,0.1,0.3,0.2,0.4,0.3c0,0,0.1-0.1,0.1-0.1
		C16.1,40.1,16,40,15.8,39.9z M10.7,40.2c0.1,0.1,0.2,0.2,0.2,0.1c0.1,0,0.2-0.1,0.3-0.2C11.1,40.2,11,40,11,40.1
		C10.9,40.1,10.8,40.2,10.7,40.2z M10.6,29.9c0-0.1,0-0.1,0.1-0.2c0,0-0.1,0-0.1-0.1c0,0.1-0.1,0.1-0.1,0.2
		C10.5,29.8,10.5,29.9,10.6,29.9z M16.1,32.9c0.1,0,0.2,0,0.2,0c0,0,0.1-0.1,0.1-0.1c0,0-0.1-0.1-0.1-0.1
		C16.2,32.8,16.2,32.8,16.1,32.9z M15.7,42.7c0-0.1,0-0.1-0.1-0.1c-0.1,0-0.1,0-0.2,0c0,0,0,0.1,0.1,0.1
		C15.5,42.7,15.6,42.7,15.7,42.7z M15.7,32.7c0-0.1,0.1-0.1,0.1-0.2c0,0-0.1-0.1-0.1-0.1c0,0-0.1,0.1-0.1,0.1
		C15.6,32.7,15.6,32.7,15.7,32.7z M15,39.2c0,0-0.1,0-0.1,0c0,0,0,0.1,0,0.1C14.9,39.3,15,39.3,15,39.2C15,39.3,15,39.3,15,39.2z
		 M10.2,40.5C10.2,40.5,10.2,40.5,10.2,40.5c0.1-0.1,0-0.1,0-0.1C10.2,40.4,10.2,40.4,10.2,40.5C10.1,40.5,10.2,40.5,10.2,40.5z
		 M16.4,38.3C16.5,38.3,16.5,38.3,16.4,38.3c0.1,0,0.1-0.1,0.1-0.1c0,0-0.1,0-0.1,0C16.4,38.2,16.4,38.2,16.4,38.3z M15.8,39
		C15.8,39,15.8,39,15.8,39C15.9,39,15.9,39,15.8,39C15.9,39,15.9,39,15.8,39C15.9,39,15.8,39,15.8,39z M11.6,29.9c0,0-0.1,0-0.1,0
		c0,0,0,0.1,0,0.1C11.5,30,11.6,30,11.6,29.9C11.6,30,11.6,30,11.6,29.9z M14.9,35.5C14.9,35.4,14.9,35.4,14.9,35.5
		c0-0.1,0-0.1,0-0.1C14.9,35.4,14.9,35.4,14.9,35.5C14.9,35.4,14.9,35.4,14.9,35.5z M15.6,26.2C15.6,26.2,15.7,26.2,15.6,26.2
		c0.1-0.1,0-0.1,0-0.1C15.6,26.1,15.6,26.2,15.6,26.2C15.6,26.2,15.6,26.2,15.6,26.2z M16.3,42.6C16.2,42.6,16.2,42.5,16.3,42.6
		C16.2,42.6,16.2,42.6,16.3,42.6C16.2,42.6,16.2,42.6,16.3,42.6C16.3,42.6,16.3,42.6,16.3,42.6z M16.3,26.8L16.3,26.8L16.3,26.8
		L16.3,26.8z M15.6,27.7L15.6,27.7L15.6,27.7L15.6,27.7z"/>
	<path class="st0" d="M124.1,25.7c-0.6-0.1-0.7-0.5-0.7-1c0-2.1-0.1-4.3-0.1-6.4c0-1.5,0-3,0.1-4.5c0.1-0.7,0.3-1.5,0.6-2.2
		c0.4-1,1.2-1.6,2.2-1.9c0.3-0.1,0.6-0.1,0.9-0.2c2-0.3,3.5,0.9,3.6,2.9c0.1,1.2,0.1,2.5,0.1,3.7c0,2.6,0.1,5.2,0.1,7.8
		c0,1.1-0.2,2.1-0.7,3.1c-0.9,1.5-2.8,2.4-4.6,1.9c-1.1-0.3-2-1.3-2.1-2.4C123.5,26.1,123.5,26.1,124.1,25.7z M124.5,18.6
		C124.5,18.6,124.5,18.6,124.5,18.6L124.5,18.6z M128.1,19.1c0-1.5,0-2.9,0-4.3c0-0.6,0-1.2-0.1-1.9c-0.1-0.5-0.3-0.8-0.7-0.8
		c-0.5-0.1-0.9,0.2-1.1,0.6c-0.1,0.4-0.2,0.7-0.2,1.1c0,1.3,0,2.6,0,3.9c0,0.6-0.1,1.1-0.1,1.7c0,1.3,0.1,2.6,0.1,3.9
		c0,0.6,0,1.3,0.1,1.9c0,0.4,0.2,0.7,0.6,0.8c0.3,0.1,0.8-0.1,1-0.5c0.2-0.3,0.3-0.7,0.3-1.1c0-1.1,0-2.1,0-3.2
		C128.1,20.6,128.1,19.9,128.1,19.1z M130.3,15.6C130.4,15.6,130.4,15.6,130.3,15.6c0.1,0,0.1-0.1,0.1-0.1c0,0,0,0-0.1,0
		C130.3,15.5,130.3,15.6,130.3,15.6z M129.7,20.1L129.7,20.1L129.7,20.1L129.7,20.1z M124.1,20.3C124.1,20.3,124.2,20.2,124.1,20.3
		c0.1-0.1,0-0.2,0-0.2C124.1,20.2,124,20.2,124.1,20.3C124,20.2,124,20.3,124.1,20.3z M130.1,13.3L130.1,13.3L130.1,13.3L130.1,13.3
		z M124.2,18.2L124.2,18.2L124.2,18.2L124.2,18.2z"/>
	<path class="st0" d="M25,35.4c-0.8,0.1-1.4,0.2-2.1,0.3c-0.5,0.1-0.6,0.1-0.6,0.7c0,0.9,0,1.9,0,2.8c0,0.6,0,1.2,0,1.9
		c1.3,0,2.4-0.4,3.7-0.4c0,0.5,0,1,0,1.4c0,1.6,0.3,1.3-1.4,1.6c-1.5,0.2-3,0.5-4.5,0.7c-0.2,0-0.3,0-0.5,0c-0.2-0.8-0.2-3.1,0-3.5
		c-0.1-0.4-0.2-0.7-0.2-1c0-4.4,0-8.7,0-13.1c0-0.3,0-0.5,0-0.8c0-0.8,0-0.8,0.9-0.9c1.2-0.1,2.3-0.3,3.5-0.4c0.5-0.1,1-0.2,1.5-0.2
		c0.5-0.1,0.7,0.1,0.7,0.6c0,0.5,0,1,0,1.4c0,0.5-0.1,0.6-0.6,0.7c-0.8,0.1-1.6,0.2-2.3,0.4c-0.2,0-0.4,0.1-0.6,0.1
		c-0.2,0.5-0.2,4.2,0,5c0.8-0.1,1.6-0.1,2.5-0.2C25.1,33.5,24.9,34.4,25,35.4z M22.4,33.2L22.4,33.2C22.5,33.2,22.5,33.2,22.4,33.2
		C22.5,33.2,22.5,33.1,22.4,33.2C22.5,33.2,22.5,33.2,22.4,33.2z M20.2,29.9L20.2,29.9C20.2,29.9,20.2,29.9,20.2,29.9
		c-0.1,0-0.1,0-0.2,0c0,0,0,0.1,0,0.1C20,30,20.1,30,20.2,29.9z M20.7,40.7c0.2,0.1,0.4,0.3,0.5,0.3c0.1,0,0.2-0.2,0.3-0.3
		c-0.1-0.1-0.2-0.3-0.3-0.3C21,40.4,20.9,40.5,20.7,40.7z M23.6,26.1c0.1-0.1,0.2-0.1,0.2-0.1c0-0.1-0.1-0.1-0.1-0.1
		c0,0-0.1,0.1-0.1,0.1C23.5,26.1,23.6,26.1,23.6,26.1z M20.4,40.9c0,0,0.1,0,0.1,0c0,0,0-0.1,0-0.1c-0.1,0-0.1,0-0.2,0.1
		C20.4,40.8,20.4,40.9,20.4,40.9z M21.9,26.4C21.9,26.4,21.8,26.4,21.9,26.4C21.9,26.5,21.9,26.5,21.9,26.4
		C21.9,26.5,21.9,26.4,21.9,26.4C21.9,26.4,21.9,26.4,21.9,26.4z M22.1,27.1C22.1,27.1,22.1,27.1,22.1,27.1
		C22.1,27,22.1,27,22.1,27.1C22.1,27.1,22.1,27.1,22.1,27.1z M22.9,25.8C22.9,25.8,22.9,25.9,22.9,25.8
		C22.9,25.9,22.9,25.8,22.9,25.8C22.9,25.8,22.9,25.8,22.9,25.8z M20.5,28L20.5,28L20.5,28L20.5,28z M19.8,42.8L19.8,42.8L19.8,42.8
		L19.8,42.8z M20.7,37.1L20.7,37.1L20.7,37.1L20.7,37.1z M23.4,34.2C23.4,34.1,23.4,34.1,23.4,34.2C23.4,34.1,23.4,34.1,23.4,34.2
		C23.4,34.1,23.4,34.1,23.4,34.2z"/>
	<path class="st0" d="M135.7,16.2c0.9-0.1,1.7-0.2,2.5-0.3c0,0.2,0.1,0.4,0.1,0.6c0,0.5,0,1,0,1.6c0,0.5-0.1,0.6-0.6,0.7
		c-0.4,0.1-0.7,0.1-1.1,0.2c-0.8,0.1-0.9,0.2-0.9,1c0,2.1,0,4.2,0,6.4c0,1,0.2,1.1-1.2,1.3c-0.5,0.1-1.1,0.1-1.6,0.2
		c-0.2-0.6-0.3-18.3-0.1-19c2.1-0.4,4.3-0.7,6.5-1c0.4,0.5,0.2,1,0.2,1.5c0,1.2,0.1,1.1-1.2,1.3c-0.7,0.1-1.5,0.2-2.2,0.4
		c-0.3,0.1-0.6,0.1-0.6,0.5C135.7,13.1,135.7,14.6,135.7,16.2z M133.2,15.8L133.2,15.8L133.2,15.8L133.2,15.8z"/>
	<path class="st0" d="M8,26.9C8.2,27.8,8,28.5,8,29.3c0,0.3-0.2,0.3-0.5,0.4c-0.4,0.1-0.9,0.1-1.3,0.2c-0.8,0.1-0.9,0.1-0.9,1
		c0,1.1,0,2.2,0,3.3c0,3.7,0,7.5,0,11.2c0,0.2,0,0.4,0,0.6c0,0.3-0.2,0.5-0.5,0.6c-0.6,0.1-1.1,0.2-1.7,0.2c-0.5,0-0.6,0-0.6-0.5
		c0-1.7,0-3.5,0-5.2c0-0.8,0-1.6,0-2.4c0-2.4,0-4.8,0-7.2c0-0.3,0-0.6,0-0.9c-0.9,0.1-1.6,0.1-2.5,0.2C0,30.5,0,30.2,0,30
		c0-0.5,0-0.9,0-1.4c0-0.4,0.1-0.5,0.5-0.6c2.2-0.4,4.5-0.7,6.7-1.1C7.4,26.9,7.6,26.9,8,26.9z M3.5,32.9
		C3.5,32.9,3.6,32.8,3.5,32.9c0.1-0.1,0-0.2,0-0.2C3.5,32.7,3.5,32.8,3.5,32.9C3.5,32.8,3.5,32.9,3.5,32.9z M4.3,32.5
		C4.3,32.5,4.4,32.5,4.3,32.5C4.4,32.5,4.4,32.5,4.3,32.5C4.4,32.5,4.3,32.5,4.3,32.5C4.3,32.5,4.3,32.5,4.3,32.5z"/>
	<path class="st0" d="M2.3,78.1C2.3,78.1,2.3,78,2.3,78.1C2.4,78,2.4,78,2.3,78.1C2.4,78,2.3,78.1,2.3,78.1z"/>
	<path class="st0" d="M110.5,44.5C110.5,44.5,110.5,44.5,110.5,44.5C110.5,44.5,110.5,44.5,110.5,44.5z"/>
	<path class="st0" d="M114.1,51.8C114.1,51.8,114.1,51.8,114.1,51.8C114.1,51.8,114.1,51.8,114.1,51.8z"/>
	<path class="st0" d="M40,13.1c0,0,0.1,0,0.1,0C40.1,13.1,40,13.1,40,13.1C40,13.1,40,13.1,40,13.1z"/>
	<path class="st0" d="M113,28.7c0,0,0,0.1,0,0.1C113,28.8,113,28.7,113,28.7C113,28.7,113,28.7,113,28.7z"/>
</g>
</svg>
